STARTFONT 2.1
COMMENT 
COMMENT This file has been produced by ttf2bdf written by Subhabrata Biswas
COMMENT 
COMMENT For comments, questions, bug reports, send a mail to
COMMENT                                           subhabrata.biswas@usa.net
COMMENT 
FONT -*-Minecraft-Medium-R-Normal--13-100-96-96-c-6--fontspecific
SIZE 10 96 96
FONTBOUNDINGBOX 11 13 0 -3
STARTPROPERTIES 15
FOUNDRY "Misc"
FAMILY_NAME "Minecraft"
WEIGHT_NAME "Medium"
SLANT "R"
SETWIDTH_NAME "Normal"
PIXEL_SIZE 7
POINT_SIZE 100
RESOLUTION_X 96
RESOLUTION_Y 96
SPACING "C"
CHARSET_ENCODING "fontspecific"
FONT_ASCENT 10
FONT_DESCENT 3
DEFAULT_CHAR 31
COPYRIGHT "You may wish to put your copyright here"
ENDPROPERTIES
CHARS 226
STARTCHAR C0030
ENCODING 30
SWIDTH 375 0
DWIDTH 5 0
BBX 4 9 0 0
BITMAP
F0
90
90
90
90
90
90
90
F0
ENDCHAR
STARTCHAR C0031
ENCODING 31
SWIDTH 375 0
DWIDTH 5 0
BBX 4 9 0 0
BITMAP
F0
90
90
90
90
90
90
90
F0
ENDCHAR
STARTCHAR C0032- 
ENCODING 32
SWIDTH 300 0
DWIDTH 4 0
BBX 1 1 0 -1
BITMAP
00
ENDCHAR
STARTCHAR C0033-!
ENCODING 33
SWIDTH 150 0
DWIDTH 2 0
BBX 2 10 0 0
BITMAP
C0
C0
C0
C0
C0
C0
C0
C0
C0
C0
ENDCHAR
STARTCHAR C0034-"
ENCODING 34
SWIDTH 525 0
DWIDTH 7 0
BBX 7 5 0 5
BITMAP
26
26
26
FE
D8
ENDCHAR
STARTCHAR C0035-#
ENCODING 35
SWIDTH 675 0
DWIDTH 9 0
BBX 8 10 0 0
BITMAP
26
26
26
FF
26
26
FF
FF
26
26
ENDCHAR
STARTCHAR C0036-$
ENCODING 36
SWIDTH 525 0
DWIDTH 7 0
BBX 7 12 0 -2
BITMAP
18
18
3E
FE
C0
20
20
18
FE
FE
18
18
ENDCHAR
STARTCHAR C0037-%
ENCODING 37
SWIDTH 825 0
DWIDTH 11 0
BBX 10 10 1 0
BITMAP
4100
A100
A200
A400
4400
0980
0A40
1240
2240
4180
ENDCHAR
STARTCHAR C0038-&
ENCODING 38
SWIDTH 675 0
DWIDTH 9 0
BBX 8 10 0 0
BITMAP
18
18
26
3F
3B
C6
C6
C6
3B
3B
ENDCHAR
STARTCHAR C0039-'
ENCODING 39
SWIDTH 150 0
DWIDTH 2 0
BBX 2 4 0 6
BITMAP
C0
C0
C0
C0
ENDCHAR
STARTCHAR C0040-(
ENCODING 40
SWIDTH 450 0
DWIDTH 6 0
BBX 5 10 0 0
BITMAP
38
38
C0
C0
C0
C0
C0
C0
38
38
ENDCHAR
STARTCHAR C0041-)
ENCODING 41
SWIDTH 450 0
DWIDTH 6 0
BBX 5 10 0 0
BITMAP
E0
E0
18
18
18
18
18
18
E0
E0
ENDCHAR
STARTCHAR C0042-*
ENCODING 42
SWIDTH 450 0
DWIDTH 6 0
BBX 5 5 0 5
BITMAP
D8
D8
70
F8
D8
ENDCHAR
STARTCHAR C0043-+
ENCODING 43
SWIDTH 600 0
DWIDTH 8 0
BBX 6 6 1 2
BITMAP
30
30
FC
FC
30
30
ENDCHAR
STARTCHAR C0044-,
ENCODING 44
SWIDTH 150 0
DWIDTH 2 0
BBX 2 4 0 -2
BITMAP
C0
C0
40
80
ENDCHAR
STARTCHAR C0045--
ENCODING 45
SWIDTH 375 0
DWIDTH 5 0
BBX 4 2 0 2
BITMAP
F0
F0
ENDCHAR
STARTCHAR C0046-.
ENCODING 46
SWIDTH 150 0
DWIDTH 2 0
BBX 2 2 0 0
BITMAP
C0
C0
ENDCHAR
STARTCHAR C0047-/
ENCODING 47
SWIDTH 525 0
DWIDTH 7 0
BBX 7 10 0 0
BITMAP
02
02
04
08
10
20
20
40
40
80
ENDCHAR
STARTCHAR C0048-0
ENCODING 48
SWIDTH 525 0
DWIDTH 7 0
BBX 7 10 0 0
BITMAP
38
38
C6
CE
F6
F6
C6
C6
38
38
ENDCHAR
STARTCHAR C0049-1
ENCODING 49
SWIDTH 450 0
DWIDTH 6 0
BBX 5 10 0 0
BITMAP
20
20
E0
E0
20
20
20
20
F8
F8
ENDCHAR
STARTCHAR C0050-2
ENCODING 50
SWIDTH 525 0
DWIDTH 7 0
BBX 7 10 0 0
BITMAP
38
38
C6
DE
18
20
20
C0
FE
FE
ENDCHAR
STARTCHAR C0051-3
ENCODING 51
SWIDTH 525 0
DWIDTH 7 0
BBX 7 10 0 0
BITMAP
38
38
C6
C6
18
18
06
C6
38
38
ENDCHAR
STARTCHAR C0052-4
ENCODING 52
SWIDTH 600 0
DWIDTH 8 0
BBX 7 10 0 0
BITMAP
06
06
1E
3E
26
C6
C6
FE
06
06
ENDCHAR
STARTCHAR C0053-5
ENCODING 53
SWIDTH 675 0
DWIDTH 9 0
BBX 8 10 0 0
BITMAP
FE
FE
C0
C0
C0
3E
3E
83
7E
7E
ENDCHAR
STARTCHAR C0054-6
ENCODING 54
SWIDTH 600 0
DWIDTH 8 0
BBX 7 10 0 0
BITMAP
1E
1E
20
E0
C0
FC
FC
C2
3C
3C
ENDCHAR
STARTCHAR C0055-7
ENCODING 55
SWIDTH 525 0
DWIDTH 7 0
BBX 7 10 0 0
BITMAP
FE
FE
C6
DE
18
20
20
20
20
20
ENDCHAR
STARTCHAR C0056-8
ENCODING 56
SWIDTH 525 0
DWIDTH 7 0
BBX 7 10 0 0
BITMAP
38
38
C6
C6
38
38
C6
C6
38
38
ENDCHAR
STARTCHAR C0057-9
ENCODING 57
SWIDTH 525 0
DWIDTH 7 0
BBX 7 10 0 0
BITMAP
38
38
C6
C6
C6
3E
3E
06
38
38
ENDCHAR
STARTCHAR C0058-:
ENCODING 58
SWIDTH 225 0
DWIDTH 3 0
BBX 1 7 1 0
BITMAP
80
00
00
00
00
80
80
ENDCHAR
STARTCHAR C0059-;
ENCODING 59
SWIDTH 225 0
DWIDTH 3 0
BBX 1 9 1 -2
BITMAP
80
00
00
00
00
80
80
80
80
ENDCHAR
STARTCHAR C0060-<
ENCODING 60
SWIDTH 450 0
DWIDTH 6 0
BBX 5 6 0 2
BITMAP
18
38
C0
C0
20
18
ENDCHAR
STARTCHAR C0061-=
ENCODING 61
SWIDTH 525 0
DWIDTH 7 0
BBX 7 5 0 2
BITMAP
FE
00
00
FE
FE
ENDCHAR
STARTCHAR C0062->
ENCODING 62
SWIDTH 450 0
DWIDTH 6 0
BBX 5 6 0 2
BITMAP
C0
E0
18
18
20
C0
ENDCHAR
STARTCHAR C0063-?
ENCODING 63
SWIDTH 525 0
DWIDTH 7 0
BBX 7 10 0 0
BITMAP
38
38
C6
C6
18
18
20
20
20
20
ENDCHAR
STARTCHAR C0064-@
ENCODING 64
SWIDTH 900 0
DWIDTH 12 0
BBX 11 12 0 -2
BITMAP
3FC0
7FE0
C020
C7A0
C7A0
D9A0
D9A0
D9A0
DFE0
DFC0
C020
7FE0
ENDCHAR
STARTCHAR C0065-A
ENCODING 65
SWIDTH 600 0
DWIDTH 8 0
BBX 7 10 0 0
BITMAP
3C
3C
C2
FE
FE
C2
C2
C2
C2
C2
ENDCHAR
STARTCHAR C0066-B
ENCODING 66
SWIDTH 675 0
DWIDTH 9 0
BBX 8 10 0 0
BITMAP
FE
FE
C3
C3
FE
FE
C3
C3
FE
FE
ENDCHAR
STARTCHAR C0067-C
ENCODING 67
SWIDTH 750 0
DWIDTH 10 0
BBX 9 10 0 0
BITMAP
3F00
3F00
C180
C180
C000
C000
C000
C180
3F00
3F00
ENDCHAR
STARTCHAR C0068-D
ENCODING 68
SWIDTH 675 0
DWIDTH 9 0
BBX 8 10 0 0
BITMAP
FE
FE
C3
C3
C3
C3
C3
C3
FE
FE
ENDCHAR
STARTCHAR C0069-E
ENCODING 69
SWIDTH 675 0
DWIDTH 9 0
BBX 8 10 0 0
BITMAP
FF
FF
C0
F0
F0
C0
C0
C0
FF
FF
ENDCHAR
STARTCHAR C0070-F
ENCODING 70
SWIDTH 600 0
DWIDTH 8 0
BBX 7 10 0 0
BITMAP
FE
FE
C0
F8
F8
C0
C0
C0
C0
C0
ENDCHAR
STARTCHAR C0071-G
ENCODING 71
SWIDTH 750 0
DWIDTH 10 0
BBX 9 10 0 0
BITMAP
3F80
3F80
C000
C380
C380
C180
C180
C180
3E00
3E00
ENDCHAR
STARTCHAR C0072-H
ENCODING 72
SWIDTH 675 0
DWIDTH 9 0
BBX 8 10 0 0
BITMAP
C3
C3
C3
C3
FF
FF
C3
C3
C3
C3
ENDCHAR
STARTCHAR C0073-I
ENCODING 73
SWIDTH 375 0
DWIDTH 5 0
BBX 3 10 1 0
BITMAP
E0
E0
40
40
40
40
40
40
E0
E0
ENDCHAR
STARTCHAR C0074-J
ENCODING 74
SWIDTH 525 0
DWIDTH 7 0
BBX 6 10 0 0
BITMAP
0C
0C
0C
0C
0C
0C
0C
CC
30
30
ENDCHAR
STARTCHAR C0075-K
ENCODING 75
SWIDTH 600 0
DWIDTH 8 0
BBX 7 10 0 0
BITMAP
C0
C2
C2
CC
F0
F0
CC
CC
C2
C2
ENDCHAR
STARTCHAR C0076-L
ENCODING 76
SWIDTH 600 0
DWIDTH 8 0
BBX 7 10 0 0
BITMAP
C0
C0
C0
C0
C0
C0
C0
C0
FE
FE
ENDCHAR
STARTCHAR C0077-M
ENCODING 77
SWIDTH 675 0
DWIDTH 9 0
BBX 8 10 0 0
BITMAP
C3
C3
E7
FF
DB
C3
C3
C3
C3
C3
ENDCHAR
STARTCHAR C0078-N
ENCODING 78
SWIDTH 675 0
DWIDTH 9 0
BBX 8 10 0 0
BITMAP
C3
E3
E3
DB
C7
C7
C3
C3
C3
C3
ENDCHAR
STARTCHAR C0079-O
ENCODING 79
SWIDTH 825 0
DWIDTH 11 0
BBX 10 10 0 0
BITMAP
3F00
3F00
C0C0
C0C0
C0C0
C0C0
C0C0
C0C0
3F00
3F00
ENDCHAR
STARTCHAR C0080-P
ENCODING 80
SWIDTH 675 0
DWIDTH 9 0
BBX 8 10 0 0
BITMAP
FE
FE
C3
FF
FE
C0
C0
C0
C0
C0
ENDCHAR
STARTCHAR C0081-Q
ENCODING 81
SWIDTH 825 0
DWIDTH 11 0
BBX 10 10 0 0
BITMAP
3F00
3F00
C0C0
C0C0
C0C0
C0C0
C0C0
C0C0
3F00
3FC0
ENDCHAR
STARTCHAR C0082-R
ENCODING 82
SWIDTH 825 0
DWIDTH 11 0
BBX 10 10 0 0
BITMAP
FE00
FE00
C180
FF80
FE00
C600
C600
C300
C0C0
C0C0
ENDCHAR
STARTCHAR C0083-S
ENCODING 83
SWIDTH 600 0
DWIDTH 8 0
BBX 7 10 0 0
BITMAP
3E
3E
C0
FC
3C
02
02
02
FC
FC
ENDCHAR
STARTCHAR C0084-T
ENCODING 84
SWIDTH 675 0
DWIDTH 9 0
BBX 8 10 0 0
BITMAP
FF
FF
18
18
18
18
18
18
18
18
ENDCHAR
STARTCHAR C0085-U
ENCODING 85
SWIDTH 675 0
DWIDTH 9 0
BBX 7 10 1 0
BITMAP
86
86
86
86
86
86
86
86
7C
7C
ENDCHAR
STARTCHAR C0086-V
ENCODING 86
SWIDTH 675 0
DWIDTH 9 0
BBX 8 10 0 0
BITMAP
C3
C3
C3
C3
26
26
26
18
18
18
ENDCHAR
STARTCHAR C0087-W
ENCODING 87
SWIDTH 675 0
DWIDTH 9 0
BBX 8 10 0 0
BITMAP
C3
C3
C3
C3
C3
DB
DB
E7
C3
C3
ENDCHAR
STARTCHAR C0088-X
ENCODING 88
SWIDTH 675 0
DWIDTH 9 0
BBX 8 10 0 0
BITMAP
C3
C3
26
3E
18
26
26
C3
C3
C3
ENDCHAR
STARTCHAR C0089-Y
ENCODING 89
SWIDTH 675 0
DWIDTH 9 0
BBX 8 10 0 0
BITMAP
C3
C3
26
3E
18
18
18
18
18
18
ENDCHAR
STARTCHAR C0090-Z
ENCODING 90
SWIDTH 675 0
DWIDTH 9 0
BBX 8 10 0 0
BITMAP
FF
FF
03
07
06
18
18
20
FF
FF
ENDCHAR
STARTCHAR C0091-[
ENCODING 91
SWIDTH 300 0
DWIDTH 4 0
BBX 3 12 0 -2
BITMAP
E0
E0
C0
C0
C0
C0
C0
C0
C0
C0
C0
E0
ENDCHAR
STARTCHAR C0092-\
ENCODING 92
SWIDTH 525 0
DWIDTH 7 0
BBX 7 10 0 0
BITMAP
80
80
40
40
20
10
10
08
04
02
ENDCHAR
STARTCHAR C0093-]
ENCODING 93
SWIDTH 300 0
DWIDTH 4 0
BBX 3 12 0 -2
BITMAP
E0
E0
20
20
20
20
20
20
20
20
20
E0
ENDCHAR
STARTCHAR C0094-^
ENCODING 94
SWIDTH 525 0
DWIDTH 7 0
BBX 7 5 0 5
BITMAP
30
30
4C
CE
82
ENDCHAR
STARTCHAR C0095-_
ENCODING 95
SWIDTH 600 0
DWIDTH 8 0
BBX 7 1 0 0
BITMAP
FE
ENDCHAR
STARTCHAR C0096-`
ENCODING 96
SWIDTH 300 0
DWIDTH 4 0
BBX 2 3 1 7
BITMAP
80
80
40
ENDCHAR
STARTCHAR C0097-a
ENCODING 97
SWIDTH 600 0
DWIDTH 8 0
BBX 7 7 0 0
BITMAP
FC
02
3E
3E
C2
3E
3E
ENDCHAR
STARTCHAR C0098-b
ENCODING 98
SWIDTH 675 0
DWIDTH 9 0
BBX 8 10 0 0
BITMAP
C0
C0
C0
DE
DE
E3
E3
C3
FE
FE
ENDCHAR
STARTCHAR C0099-c
ENCODING 99
SWIDTH 600 0
DWIDTH 8 0
BBX 7 7 0 0
BITMAP
3C
C2
C2
C0
C2
3C
3C
ENDCHAR
STARTCHAR C0100-d
ENCODING 100
SWIDTH 525 0
DWIDTH 7 0
BBX 7 10 0 0
BITMAP
06
06
06
3E
C6
C6
C6
C6
FE
FE
ENDCHAR
STARTCHAR C0101-e
ENCODING 101
SWIDTH 525 0
DWIDTH 7 0
BBX 7 7 0 0
BITMAP
3E
C6
FE
F8
C0
3E
3E
ENDCHAR
STARTCHAR C0102-f
ENCODING 102
SWIDTH 525 0
DWIDTH 7 0
BBX 7 10 0 0
BITMAP
3C
3C
20
FE
20
20
20
20
20
20
ENDCHAR
STARTCHAR C0103-g
ENCODING 103
SWIDTH 525 0
DWIDTH 7 0
BBX 7 10 0 -3
BITMAP
3E
C6
C6
3E
3E
06
06
C6
C6
38
ENDCHAR
STARTCHAR C0104-h
ENCODING 104
SWIDTH 525 0
DWIDTH 7 0
BBX 7 10 0 0
BITMAP
C0
C0
C0
D8
D8
E6
E6
C6
C6
C6
ENDCHAR
STARTCHAR C0105-i
ENCODING 105
SWIDTH 150 0
DWIDTH 2 0
BBX 2 10 0 0
BITMAP
C0
C0
00
C0
C0
C0
C0
C0
C0
C0
ENDCHAR
STARTCHAR C0106-j
ENCODING 106
SWIDTH 525 0
DWIDTH 7 0
BBX 6 10 0 -2
BITMAP
0C
0C
0C
0C
0C
0C
CC
CC
30
30
ENDCHAR
STARTCHAR C0107-k
ENCODING 107
SWIDTH 525 0
DWIDTH 7 0
BBX 7 10 0 0
BITMAP
C0
C0
C6
DE
D8
E0
E0
D8
C6
C6
ENDCHAR
STARTCHAR C0108-l
ENCODING 108
SWIDTH 150 0
DWIDTH 2 0
BBX 2 10 0 0
BITMAP
C0
C0
C0
C0
C0
C0
C0
C0
C0
C0
ENDCHAR
STARTCHAR C0109-m
ENCODING 109
SWIDTH 900 0
DWIDTH 12 0
BBX 11 7 0 0
BITMAP
FBC0
C620
C620
C620
C620
C620
C620
ENDCHAR
STARTCHAR C0110-n
ENCODING 110
SWIDTH 600 0
DWIDTH 8 0
BBX 7 7 0 0
BITMAP
FC
C2
C2
C2
C2
C2
C2
ENDCHAR
STARTCHAR C0111-o
ENCODING 111
SWIDTH 525 0
DWIDTH 7 0
BBX 7 7 0 0
BITMAP
38
C6
C6
C6
C6
38
38
ENDCHAR
STARTCHAR C0112-p
ENCODING 112
SWIDTH 600 0
DWIDTH 8 0
BBX 7 9 0 -2
BITMAP
DC
E2
E2
C2
C2
FC
C0
C0
C0
ENDCHAR
STARTCHAR C0113-q
ENCODING 113
SWIDTH 525 0
DWIDTH 7 0
BBX 7 9 0 -2
BITMAP
3E
CE
C6
C6
C6
3E
3E
06
06
ENDCHAR
STARTCHAR C0114-r
ENCODING 114
SWIDTH 525 0
DWIDTH 7 0
BBX 6 7 0 0
BITMAP
FC
C4
C0
C0
C0
C0
C0
ENDCHAR
STARTCHAR C0115-s
ENCODING 115
SWIDTH 525 0
DWIDTH 7 0
BBX 6 8 0 0
BITMAP
3C
FC
C0
30
30
0C
F0
F0
ENDCHAR
STARTCHAR C0116-t
ENCODING 116
SWIDTH 375 0
DWIDTH 5 0
BBX 4 9 0 0
BITMAP
40
40
E0
40
40
40
40
30
30
ENDCHAR
STARTCHAR C0117-u
ENCODING 117
SWIDTH 525 0
DWIDTH 7 0
BBX 7 7 0 0
BITMAP
C6
C6
C6
C6
C6
3E
3E
ENDCHAR
STARTCHAR C0118-v
ENCODING 118
SWIDTH 675 0
DWIDTH 9 0
BBX 8 6 0 0
BITMAP
C3
C3
C3
26
18
18
ENDCHAR
STARTCHAR C0119-w
ENCODING 119
SWIDTH 750 0
DWIDTH 10 0
BBX 9 7 0 0
BITMAP
C180
C180
C180
CD80
CD80
3F80
3F80
ENDCHAR
STARTCHAR C0120-x
ENCODING 120
SWIDTH 675 0
DWIDTH 9 0
BBX 8 8 0 0
BITMAP
C3
E7
26
18
18
26
C3
C3
ENDCHAR
STARTCHAR C0121-y
ENCODING 121
SWIDTH 525 0
DWIDTH 7 0
BBX 7 9 0 -2
BITMAP
C6
C6
C6
C6
3E
06
06
F8
F8
ENDCHAR
STARTCHAR C0122-z
ENCODING 122
SWIDTH 525 0
DWIDTH 7 0
BBX 7 8 0 0
BITMAP
FE
FE
0C
30
30
40
FE
FE
ENDCHAR
STARTCHAR C0123-{
ENCODING 123
SWIDTH 375 0
DWIDTH 5 0
BBX 4 13 0 -3
BITMAP
30
30
40
40
40
40
C0
40
40
40
40
40
30
ENDCHAR
STARTCHAR C0124-|
ENCODING 124
SWIDTH 150 0
DWIDTH 2 0
BBX 2 13 0 -3
BITMAP
C0
C0
C0
C0
C0
C0
C0
C0
C0
C0
C0
C0
C0
ENDCHAR
STARTCHAR C0125-}
ENCODING 125
SWIDTH 375 0
DWIDTH 5 0
BBX 4 13 0 -3
BITMAP
C0
C0
20
20
20
20
30
20
20
20
20
20
C0
ENDCHAR
STARTCHAR C0126-~
ENCODING 126
SWIDTH 675 0
DWIDTH 9 0
BBX 8 2 0 4
BITMAP
33
CE
ENDCHAR
STARTCHAR C0127
ENCODING 127
SWIDTH 375 0
DWIDTH 5 0
BBX 4 9 0 0
BITMAP
F0
90
90
90
90
90
90
90
F0
ENDCHAR
STARTCHAR C0128
ENCODING 128
SWIDTH 600 0
DWIDTH 8 0
BBX 7 11 0 -1
BITMAP
3C
3E
62
FE
FE
40
FC
FC
22
3E
1C
ENDCHAR
STARTCHAR C0129
ENCODING 129
SWIDTH 375 0
DWIDTH 5 0
BBX 4 9 0 0
BITMAP
F0
90
90
90
90
90
90
90
F0
ENDCHAR
STARTCHAR C0130
ENCODING 130
SWIDTH 375 0
DWIDTH 5 0
BBX 4 9 0 0
BITMAP
F0
90
90
90
90
90
90
90
F0
ENDCHAR
STARTCHAR C0131
ENCODING 131
SWIDTH 375 0
DWIDTH 5 0
BBX 4 9 0 0
BITMAP
F0
90
90
90
90
90
90
90
F0
ENDCHAR
STARTCHAR C0132
ENCODING 132
SWIDTH 375 0
DWIDTH 5 0
BBX 4 9 0 0
BITMAP
F0
90
90
90
90
90
90
90
F0
ENDCHAR
STARTCHAR C0133
ENCODING 133
SWIDTH 375 0
DWIDTH 5 0
BBX 4 9 0 0
BITMAP
F0
90
90
90
90
90
90
90
F0
ENDCHAR
STARTCHAR C0134
ENCODING 134
SWIDTH 375 0
DWIDTH 5 0
BBX 4 9 0 0
BITMAP
F0
90
90
90
90
90
90
90
F0
ENDCHAR
STARTCHAR C0135
ENCODING 135
SWIDTH 375 0
DWIDTH 5 0
BBX 4 9 0 0
BITMAP
F0
90
90
90
90
90
90
90
F0
ENDCHAR
STARTCHAR C0136
ENCODING 136
SWIDTH 375 0
DWIDTH 5 0
BBX 4 9 0 0
BITMAP
F0
90
90
90
90
90
90
90
F0
ENDCHAR
STARTCHAR C0137
ENCODING 137
SWIDTH 375 0
DWIDTH 5 0
BBX 4 9 0 0
BITMAP
F0
90
90
90
90
90
90
90
F0
ENDCHAR
STARTCHAR C0138
ENCODING 138
SWIDTH 375 0
DWIDTH 5 0
BBX 4 9 0 0
BITMAP
F0
90
90
90
90
90
90
90
F0
ENDCHAR
STARTCHAR C0139
ENCODING 139
SWIDTH 375 0
DWIDTH 5 0
BBX 4 9 0 0
BITMAP
F0
90
90
90
90
90
90
90
F0
ENDCHAR
STARTCHAR C0140
ENCODING 140
SWIDTH 375 0
DWIDTH 5 0
BBX 4 9 0 0
BITMAP
F0
90
90
90
90
90
90
90
F0
ENDCHAR
STARTCHAR C0141
ENCODING 141
SWIDTH 375 0
DWIDTH 5 0
BBX 4 9 0 0
BITMAP
F0
90
90
90
90
90
90
90
F0
ENDCHAR
STARTCHAR C0142
ENCODING 142
SWIDTH 375 0
DWIDTH 5 0
BBX 4 9 0 0
BITMAP
F0
90
90
90
90
90
90
90
F0
ENDCHAR
STARTCHAR C0143
ENCODING 143
SWIDTH 375 0
DWIDTH 5 0
BBX 4 9 0 0
BITMAP
F0
90
90
90
90
90
90
90
F0
ENDCHAR
STARTCHAR C0144
ENCODING 144
SWIDTH 375 0
DWIDTH 5 0
BBX 4 9 0 0
BITMAP
F0
90
90
90
90
90
90
90
F0
ENDCHAR
STARTCHAR C0145
ENCODING 145
SWIDTH 375 0
DWIDTH 5 0
BBX 4 9 0 0
BITMAP
F0
90
90
90
90
90
90
90
F0
ENDCHAR
STARTCHAR C0146
ENCODING 146
SWIDTH 375 0
DWIDTH 5 0
BBX 4 9 0 0
BITMAP
F0
90
90
90
90
90
90
90
F0
ENDCHAR
STARTCHAR C0147
ENCODING 147
SWIDTH 375 0
DWIDTH 5 0
BBX 4 9 0 0
BITMAP
F0
90
90
90
90
90
90
90
F0
ENDCHAR
STARTCHAR C0148
ENCODING 148
SWIDTH 375 0
DWIDTH 5 0
BBX 4 9 0 0
BITMAP
F0
90
90
90
90
90
90
90
F0
ENDCHAR
STARTCHAR C0149
ENCODING 149
SWIDTH 375 0
DWIDTH 5 0
BBX 4 9 0 0
BITMAP
F0
90
90
90
90
90
90
90
F0
ENDCHAR
STARTCHAR C0150
ENCODING 150
SWIDTH 375 0
DWIDTH 5 0
BBX 4 9 0 0
BITMAP
F0
90
90
90
90
90
90
90
F0
ENDCHAR
STARTCHAR C0151
ENCODING 151
SWIDTH 375 0
DWIDTH 5 0
BBX 4 9 0 0
BITMAP
F0
90
90
90
90
90
90
90
F0
ENDCHAR
STARTCHAR C0152
ENCODING 152
SWIDTH 375 0
DWIDTH 5 0
BBX 4 9 0 0
BITMAP
F0
90
90
90
90
90
90
90
F0
ENDCHAR
STARTCHAR C0153
ENCODING 153
SWIDTH 375 0
DWIDTH 5 0
BBX 4 9 0 0
BITMAP
F0
90
90
90
90
90
90
90
F0
ENDCHAR
STARTCHAR C0154
ENCODING 154
SWIDTH 375 0
DWIDTH 5 0
BBX 4 9 0 0
BITMAP
F0
90
90
90
90
90
90
90
F0
ENDCHAR
STARTCHAR C0155
ENCODING 155
SWIDTH 375 0
DWIDTH 5 0
BBX 4 9 0 0
BITMAP
F0
90
90
90
90
90
90
90
F0
ENDCHAR
STARTCHAR C0156
ENCODING 156
SWIDTH 375 0
DWIDTH 5 0
BBX 4 9 0 0
BITMAP
F0
90
90
90
90
90
90
90
F0
ENDCHAR
STARTCHAR C0157
ENCODING 157
SWIDTH 375 0
DWIDTH 5 0
BBX 4 9 0 0
BITMAP
F0
90
90
90
90
90
90
90
F0
ENDCHAR
STARTCHAR C0158
ENCODING 158
SWIDTH 375 0
DWIDTH 5 0
BBX 4 9 0 0
BITMAP
F0
90
90
90
90
90
90
90
F0
ENDCHAR
STARTCHAR C0159
ENCODING 159
SWIDTH 375 0
DWIDTH 5 0
BBX 4 9 0 0
BITMAP
F0
90
90
90
90
90
90
90
F0
ENDCHAR
STARTCHAR C0160
ENCODING 160
SWIDTH 300 0
DWIDTH 4 0
BBX 1 1 0 -1
BITMAP
00
ENDCHAR
STARTCHAR C0161
ENCODING 161
SWIDTH 375 0
DWIDTH 5 0
BBX 3 9 1 -2
BITMAP
40
40
00
40
40
40
40
40
E0
ENDCHAR
STARTCHAR C0162
ENCODING 162
SWIDTH 525 0
DWIDTH 7 0
BBX 7 12 0 -2
BITMAP
04
04
38
FE
CE
D0
E0
E6
38
38
40
80
ENDCHAR
STARTCHAR C0163
ENCODING 163
SWIDTH 525 0
DWIDTH 7 0
BBX 7 10 0 0
BITMAP
38
3C
46
46
F8
F8
20
20
FE
FE
ENDCHAR
STARTCHAR C0164
ENCODING 164
SWIDTH 600 0
DWIDTH 8 0
BBX 7 7 0 1
BITMAP
82
7E
46
46
46
3C
C2
ENDCHAR
STARTCHAR C0165
ENCODING 165
SWIDTH 600 0
DWIDTH 8 0
BBX 7 10 0 -1
BITMAP
82
82
46
38
FE
FE
10
FE
10
10
ENDCHAR
STARTCHAR C0166
ENCODING 166
SWIDTH 225 0
DWIDTH 3 0
BBX 1 13 1 -3
BITMAP
80
80
80
80
80
80
00
00
80
80
80
80
80
ENDCHAR
STARTCHAR C0167
ENCODING 167
SWIDTH 525 0
DWIDTH 7 0
BBX 6 11 1 -2
BITMAP
70
88
40
A0
90
88
84
78
08
88
F8
ENDCHAR
STARTCHAR C0168
ENCODING 168
SWIDTH 375 0
DWIDTH 5 0
BBX 4 2 0 8
BITMAP
F0
F0
ENDCHAR
STARTCHAR C0169
ENCODING 169
SWIDTH 825 0
DWIDTH 11 0
BBX 10 10 0 0
BITMAP
1E00
2200
4100
DEC0
A040
A040
A040
5280
2F00
1E00
ENDCHAR
STARTCHAR C0170
ENCODING 170
SWIDTH 375 0
DWIDTH 5 0
BBX 4 9 0 0
BITMAP
F0
90
90
90
90
90
90
90
F0
ENDCHAR
STARTCHAR C0171
ENCODING 171
SWIDTH 375 0
DWIDTH 5 0
BBX 4 9 0 0
BITMAP
F0
90
90
90
90
90
90
90
F0
ENDCHAR
STARTCHAR C0172
ENCODING 172
SWIDTH 375 0
DWIDTH 5 0
BBX 4 9 0 0
BITMAP
F0
90
90
90
90
90
90
90
F0
ENDCHAR
STARTCHAR C0173
ENCODING 173
SWIDTH 375 0
DWIDTH 5 0
BBX 4 9 0 0
BITMAP
F0
90
90
90
90
90
90
90
F0
ENDCHAR
STARTCHAR C0174
ENCODING 174
SWIDTH 375 0
DWIDTH 5 0
BBX 4 9 0 0
BITMAP
F0
90
90
90
90
90
90
90
F0
ENDCHAR
STARTCHAR C0175
ENCODING 175
SWIDTH 375 0
DWIDTH 5 0
BBX 4 9 0 0
BITMAP
F0
90
90
90
90
90
90
90
F0
ENDCHAR
STARTCHAR C0176
ENCODING 176
SWIDTH 375 0
DWIDTH 5 0
BBX 4 9 0 0
BITMAP
F0
90
90
90
90
90
90
90
F0
ENDCHAR
STARTCHAR C0177
ENCODING 177
SWIDTH 375 0
DWIDTH 5 0
BBX 4 9 0 0
BITMAP
F0
90
90
90
90
90
90
90
F0
ENDCHAR
STARTCHAR C0178
ENCODING 178
SWIDTH 375 0
DWIDTH 5 0
BBX 4 9 0 0
BITMAP
F0
90
90
90
90
90
90
90
F0
ENDCHAR
STARTCHAR C0179
ENCODING 179
SWIDTH 375 0
DWIDTH 5 0
BBX 4 9 0 0
BITMAP
F0
90
90
90
90
90
90
90
F0
ENDCHAR
STARTCHAR C0180
ENCODING 180
SWIDTH 375 0
DWIDTH 5 0
BBX 4 9 0 0
BITMAP
F0
90
90
90
90
90
90
90
F0
ENDCHAR
STARTCHAR C0181
ENCODING 181
SWIDTH 375 0
DWIDTH 5 0
BBX 4 9 0 0
BITMAP
F0
90
90
90
90
90
90
90
F0
ENDCHAR
STARTCHAR C0182
ENCODING 182
SWIDTH 375 0
DWIDTH 5 0
BBX 4 9 0 0
BITMAP
F0
90
90
90
90
90
90
90
F0
ENDCHAR
STARTCHAR C0183
ENCODING 183
SWIDTH 375 0
DWIDTH 5 0
BBX 4 9 0 0
BITMAP
F0
90
90
90
90
90
90
90
F0
ENDCHAR
STARTCHAR C0184
ENCODING 184
SWIDTH 375 0
DWIDTH 5 0
BBX 4 9 0 0
BITMAP
F0
90
90
90
90
90
90
90
F0
ENDCHAR
STARTCHAR C0185
ENCODING 185
SWIDTH 375 0
DWIDTH 5 0
BBX 4 9 0 0
BITMAP
F0
90
90
90
90
90
90
90
F0
ENDCHAR
STARTCHAR C0186
ENCODING 186
SWIDTH 375 0
DWIDTH 5 0
BBX 4 9 0 0
BITMAP
F0
90
90
90
90
90
90
90
F0
ENDCHAR
STARTCHAR C0187
ENCODING 187
SWIDTH 375 0
DWIDTH 5 0
BBX 4 9 0 0
BITMAP
F0
90
90
90
90
90
90
90
F0
ENDCHAR
STARTCHAR C0188
ENCODING 188
SWIDTH 375 0
DWIDTH 5 0
BBX 4 9 0 0
BITMAP
F0
90
90
90
90
90
90
90
F0
ENDCHAR
STARTCHAR C0189
ENCODING 189
SWIDTH 375 0
DWIDTH 5 0
BBX 4 9 0 0
BITMAP
F0
90
90
90
90
90
90
90
F0
ENDCHAR
STARTCHAR C0190
ENCODING 190
SWIDTH 375 0
DWIDTH 5 0
BBX 4 9 0 0
BITMAP
F0
90
90
90
90
90
90
90
F0
ENDCHAR
STARTCHAR C0191
ENCODING 191
SWIDTH 375 0
DWIDTH 5 0
BBX 4 9 0 0
BITMAP
F0
90
90
90
90
90
90
90
F0
ENDCHAR
STARTCHAR C0192
ENCODING 192
SWIDTH 375 0
DWIDTH 5 0
BBX 4 9 0 0
BITMAP
F0
90
90
90
90
90
90
90
F0
ENDCHAR
STARTCHAR C0193
ENCODING 193
SWIDTH 375 0
DWIDTH 5 0
BBX 4 9 0 0
BITMAP
F0
90
90
90
90
90
90
90
F0
ENDCHAR
STARTCHAR C0194
ENCODING 194
SWIDTH 375 0
DWIDTH 5 0
BBX 4 9 0 0
BITMAP
F0
90
90
90
90
90
90
90
F0
ENDCHAR
STARTCHAR C0195
ENCODING 195
SWIDTH 375 0
DWIDTH 5 0
BBX 4 9 0 0
BITMAP
F0
90
90
90
90
90
90
90
F0
ENDCHAR
STARTCHAR C0196
ENCODING 196
SWIDTH 375 0
DWIDTH 5 0
BBX 4 9 0 0
BITMAP
F0
90
90
90
90
90
90
90
F0
ENDCHAR
STARTCHAR C0197
ENCODING 197
SWIDTH 375 0
DWIDTH 5 0
BBX 4 9 0 0
BITMAP
F0
90
90
90
90
90
90
90
F0
ENDCHAR
STARTCHAR C0198
ENCODING 198
SWIDTH 375 0
DWIDTH 5 0
BBX 4 9 0 0
BITMAP
F0
90
90
90
90
90
90
90
F0
ENDCHAR
STARTCHAR C0199
ENCODING 199
SWIDTH 375 0
DWIDTH 5 0
BBX 4 9 0 0
BITMAP
F0
90
90
90
90
90
90
90
F0
ENDCHAR
STARTCHAR C0200
ENCODING 200
SWIDTH 375 0
DWIDTH 5 0
BBX 4 9 0 0
BITMAP
F0
90
90
90
90
90
90
90
F0
ENDCHAR
STARTCHAR C0201
ENCODING 201
SWIDTH 375 0
DWIDTH 5 0
BBX 4 9 0 0
BITMAP
F0
90
90
90
90
90
90
90
F0
ENDCHAR
STARTCHAR C0202
ENCODING 202
SWIDTH 375 0
DWIDTH 5 0
BBX 4 9 0 0
BITMAP
F0
90
90
90
90
90
90
90
F0
ENDCHAR
STARTCHAR C0203
ENCODING 203
SWIDTH 375 0
DWIDTH 5 0
BBX 4 9 0 0
BITMAP
F0
90
90
90
90
90
90
90
F0
ENDCHAR
STARTCHAR C0204
ENCODING 204
SWIDTH 375 0
DWIDTH 5 0
BBX 4 9 0 0
BITMAP
F0
90
90
90
90
90
90
90
F0
ENDCHAR
STARTCHAR C0205
ENCODING 205
SWIDTH 375 0
DWIDTH 5 0
BBX 4 9 0 0
BITMAP
F0
90
90
90
90
90
90
90
F0
ENDCHAR
STARTCHAR C0206
ENCODING 206
SWIDTH 375 0
DWIDTH 5 0
BBX 4 9 0 0
BITMAP
F0
90
90
90
90
90
90
90
F0
ENDCHAR
STARTCHAR C0207
ENCODING 207
SWIDTH 375 0
DWIDTH 5 0
BBX 4 9 0 0
BITMAP
F0
90
90
90
90
90
90
90
F0
ENDCHAR
STARTCHAR C0208
ENCODING 208
SWIDTH 375 0
DWIDTH 5 0
BBX 4 9 0 0
BITMAP
F0
90
90
90
90
90
90
90
F0
ENDCHAR
STARTCHAR C0209
ENCODING 209
SWIDTH 375 0
DWIDTH 5 0
BBX 4 9 0 0
BITMAP
F0
90
90
90
90
90
90
90
F0
ENDCHAR
STARTCHAR C0210
ENCODING 210
SWIDTH 375 0
DWIDTH 5 0
BBX 4 9 0 0
BITMAP
F0
90
90
90
90
90
90
90
F0
ENDCHAR
STARTCHAR C0211
ENCODING 211
SWIDTH 375 0
DWIDTH 5 0
BBX 4 9 0 0
BITMAP
F0
90
90
90
90
90
90
90
F0
ENDCHAR
STARTCHAR C0212
ENCODING 212
SWIDTH 375 0
DWIDTH 5 0
BBX 4 9 0 0
BITMAP
F0
90
90
90
90
90
90
90
F0
ENDCHAR
STARTCHAR C0213
ENCODING 213
SWIDTH 375 0
DWIDTH 5 0
BBX 4 9 0 0
BITMAP
F0
90
90
90
90
90
90
90
F0
ENDCHAR
STARTCHAR C0214
ENCODING 214
SWIDTH 375 0
DWIDTH 5 0
BBX 4 9 0 0
BITMAP
F0
90
90
90
90
90
90
90
F0
ENDCHAR
STARTCHAR C0215
ENCODING 215
SWIDTH 375 0
DWIDTH 5 0
BBX 4 9 0 0
BITMAP
F0
90
90
90
90
90
90
90
F0
ENDCHAR
STARTCHAR C0216
ENCODING 216
SWIDTH 375 0
DWIDTH 5 0
BBX 4 9 0 0
BITMAP
F0
90
90
90
90
90
90
90
F0
ENDCHAR
STARTCHAR C0217
ENCODING 217
SWIDTH 375 0
DWIDTH 5 0
BBX 4 9 0 0
BITMAP
F0
90
90
90
90
90
90
90
F0
ENDCHAR
STARTCHAR C0218
ENCODING 218
SWIDTH 375 0
DWIDTH 5 0
BBX 4 9 0 0
BITMAP
F0
90
90
90
90
90
90
90
F0
ENDCHAR
STARTCHAR C0219
ENCODING 219
SWIDTH 375 0
DWIDTH 5 0
BBX 4 9 0 0
BITMAP
F0
90
90
90
90
90
90
90
F0
ENDCHAR
STARTCHAR C0220
ENCODING 220
SWIDTH 375 0
DWIDTH 5 0
BBX 4 9 0 0
BITMAP
F0
90
90
90
90
90
90
90
F0
ENDCHAR
STARTCHAR C0221
ENCODING 221
SWIDTH 375 0
DWIDTH 5 0
BBX 4 9 0 0
BITMAP
F0
90
90
90
90
90
90
90
F0
ENDCHAR
STARTCHAR C0222
ENCODING 222
SWIDTH 375 0
DWIDTH 5 0
BBX 4 9 0 0
BITMAP
F0
90
90
90
90
90
90
90
F0
ENDCHAR
STARTCHAR C0223
ENCODING 223
SWIDTH 375 0
DWIDTH 5 0
BBX 4 9 0 0
BITMAP
F0
90
90
90
90
90
90
90
F0
ENDCHAR
STARTCHAR C0224
ENCODING 224
SWIDTH 375 0
DWIDTH 5 0
BBX 4 9 0 0
BITMAP
F0
90
90
90
90
90
90
90
F0
ENDCHAR
STARTCHAR C0225
ENCODING 225
SWIDTH 375 0
DWIDTH 5 0
BBX 4 9 0 0
BITMAP
F0
90
90
90
90
90
90
90
F0
ENDCHAR
STARTCHAR C0226
ENCODING 226
SWIDTH 375 0
DWIDTH 5 0
BBX 4 9 0 0
BITMAP
F0
90
90
90
90
90
90
90
F0
ENDCHAR
STARTCHAR C0227
ENCODING 227
SWIDTH 375 0
DWIDTH 5 0
BBX 4 9 0 0
BITMAP
F0
90
90
90
90
90
90
90
F0
ENDCHAR
STARTCHAR C0228
ENCODING 228
SWIDTH 375 0
DWIDTH 5 0
BBX 4 9 0 0
BITMAP
F0
90
90
90
90
90
90
90
F0
ENDCHAR
STARTCHAR C0229
ENCODING 229
SWIDTH 375 0
DWIDTH 5 0
BBX 4 9 0 0
BITMAP
F0
90
90
90
90
90
90
90
F0
ENDCHAR
STARTCHAR C0230
ENCODING 230
SWIDTH 375 0
DWIDTH 5 0
BBX 4 9 0 0
BITMAP
F0
90
90
90
90
90
90
90
F0
ENDCHAR
STARTCHAR C0231
ENCODING 231
SWIDTH 375 0
DWIDTH 5 0
BBX 4 9 0 0
BITMAP
F0
90
90
90
90
90
90
90
F0
ENDCHAR
STARTCHAR C0232
ENCODING 232
SWIDTH 375 0
DWIDTH 5 0
BBX 4 9 0 0
BITMAP
F0
90
90
90
90
90
90
90
F0
ENDCHAR
STARTCHAR C0233
ENCODING 233
SWIDTH 375 0
DWIDTH 5 0
BBX 4 9 0 0
BITMAP
F0
90
90
90
90
90
90
90
F0
ENDCHAR
STARTCHAR C0234
ENCODING 234
SWIDTH 375 0
DWIDTH 5 0
BBX 4 9 0 0
BITMAP
F0
90
90
90
90
90
90
90
F0
ENDCHAR
STARTCHAR C0235
ENCODING 235
SWIDTH 375 0
DWIDTH 5 0
BBX 4 9 0 0
BITMAP
F0
90
90
90
90
90
90
90
F0
ENDCHAR
STARTCHAR C0236
ENCODING 236
SWIDTH 375 0
DWIDTH 5 0
BBX 4 9 0 0
BITMAP
F0
90
90
90
90
90
90
90
F0
ENDCHAR
STARTCHAR C0237
ENCODING 237
SWIDTH 375 0
DWIDTH 5 0
BBX 4 9 0 0
BITMAP
F0
90
90
90
90
90
90
90
F0
ENDCHAR
STARTCHAR C0238
ENCODING 238
SWIDTH 375 0
DWIDTH 5 0
BBX 4 9 0 0
BITMAP
F0
90
90
90
90
90
90
90
F0
ENDCHAR
STARTCHAR C0239
ENCODING 239
SWIDTH 375 0
DWIDTH 5 0
BBX 4 9 0 0
BITMAP
F0
90
90
90
90
90
90
90
F0
ENDCHAR
STARTCHAR C0240
ENCODING 240
SWIDTH 375 0
DWIDTH 5 0
BBX 4 9 0 0
BITMAP
F0
90
90
90
90
90
90
90
F0
ENDCHAR
STARTCHAR C0241
ENCODING 241
SWIDTH 375 0
DWIDTH 5 0
BBX 4 9 0 0
BITMAP
F0
90
90
90
90
90
90
90
F0
ENDCHAR
STARTCHAR C0242
ENCODING 242
SWIDTH 375 0
DWIDTH 5 0
BBX 4 9 0 0
BITMAP
F0
90
90
90
90
90
90
90
F0
ENDCHAR
STARTCHAR C0243
ENCODING 243
SWIDTH 375 0
DWIDTH 5 0
BBX 4 9 0 0
BITMAP
F0
90
90
90
90
90
90
90
F0
ENDCHAR
STARTCHAR C0244
ENCODING 244
SWIDTH 375 0
DWIDTH 5 0
BBX 4 9 0 0
BITMAP
F0
90
90
90
90
90
90
90
F0
ENDCHAR
STARTCHAR C0245
ENCODING 245
SWIDTH 375 0
DWIDTH 5 0
BBX 4 9 0 0
BITMAP
F0
90
90
90
90
90
90
90
F0
ENDCHAR
STARTCHAR C0246
ENCODING 246
SWIDTH 375 0
DWIDTH 5 0
BBX 4 9 0 0
BITMAP
F0
90
90
90
90
90
90
90
F0
ENDCHAR
STARTCHAR C0247
ENCODING 247
SWIDTH 375 0
DWIDTH 5 0
BBX 4 9 0 0
BITMAP
F0
90
90
90
90
90
90
90
F0
ENDCHAR
STARTCHAR C0248
ENCODING 248
SWIDTH 375 0
DWIDTH 5 0
BBX 4 9 0 0
BITMAP
F0
90
90
90
90
90
90
90
F0
ENDCHAR
STARTCHAR C0249
ENCODING 249
SWIDTH 375 0
DWIDTH 5 0
BBX 4 9 0 0
BITMAP
F0
90
90
90
90
90
90
90
F0
ENDCHAR
STARTCHAR C0250
ENCODING 250
SWIDTH 375 0
DWIDTH 5 0
BBX 4 9 0 0
BITMAP
F0
90
90
90
90
90
90
90
F0
ENDCHAR
STARTCHAR C0251
ENCODING 251
SWIDTH 375 0
DWIDTH 5 0
BBX 4 9 0 0
BITMAP
F0
90
90
90
90
90
90
90
F0
ENDCHAR
STARTCHAR C0252
ENCODING 252
SWIDTH 375 0
DWIDTH 5 0
BBX 4 9 0 0
BITMAP
F0
90
90
90
90
90
90
90
F0
ENDCHAR
STARTCHAR C0253
ENCODING 253
SWIDTH 375 0
DWIDTH 5 0
BBX 4 9 0 0
BITMAP
F0
90
90
90
90
90
90
90
F0
ENDCHAR
STARTCHAR C0254
ENCODING 254
SWIDTH 375 0
DWIDTH 5 0
BBX 4 9 0 0
BITMAP
F0
90
90
90
90
90
90
90
F0
ENDCHAR
STARTCHAR C0255
ENCODING 255
SWIDTH 375 0
DWIDTH 5 0
BBX 4 9 0 0
BITMAP
F0
90
90
90
90
90
90
90
F0
ENDCHAR
ENDFONT

