STARTFONT 2.1
COMMENT 
COMMENT This file has been produced by ttf2bdf written by Subhabrata Biswas
COMMENT 
COMMENT For comments, questions, bug reports, send a mail to
COMMENT                                           subhabrata.biswas@usa.net
COMMENT 
FONT -*-Minecraft-Medium-R-Normal--16-120-96-96-c-8--fontspecific
SIZE 12 96 96
FONTBOUNDINGBOX 14 16 0 -4
STARTPROPERTIES 15
FOUNDRY "Misc"
FAMILY_NAME "Minecraft"
WEIGHT_NAME "Medium"
SLANT "R"
SETWIDTH_NAME "Normal"
PIXEL_SIZE 8
POINT_SIZE 120
RESOLUTION_X 96
RESOLUTION_Y 96
SPACING "C"
CHARSET_ENCODING "fontspecific"
FONT_ASCENT 12
FONT_DESCENT 4
DEFAULT_CHAR 31
COPYRIGHT "You may wish to put your copyright here"
ENDPROPERTIES
CHARS 226
STARTCHAR C0030
ENCODING 30
SWIDTH 375 0
DWIDTH 6 0
BBX 5 11 1 0
BITMAP
F8
88
88
88
88
88
88
88
88
88
F8
ENDCHAR
STARTCHAR C0031
ENCODING 31
SWIDTH 375 0
DWIDTH 6 0
BBX 5 11 1 0
BITMAP
F8
88
88
88
88
88
88
88
88
88
F8
ENDCHAR
STARTCHAR C0032- 
ENCODING 32
SWIDTH 312 0
DWIDTH 5 0
BBX 1 1 0 -1
BITMAP
00
ENDCHAR
STARTCHAR C0033-!
ENCODING 33
SWIDTH 187 0
DWIDTH 3 0
BBX 2 12 0 0
BITMAP
C0
C0
C0
C0
C0
C0
C0
C0
C0
00
C0
C0
ENDCHAR
STARTCHAR C0034-"
ENCODING 34
SWIDTH 562 0
DWIDTH 9 0
BBX 8 6 0 6
BITMAP
33
33
33
33
CC
CC
ENDCHAR
STARTCHAR C0035-#
ENCODING 35
SWIDTH 687 0
DWIDTH 11 0
BBX 10 12 0 0
BITMAP
3300
3300
3300
FFC0
FFC0
3300
3300
FFC0
FFC0
3300
3300
3300
ENDCHAR
STARTCHAR C0036-$
ENCODING 36
SWIDTH 562 0
DWIDTH 9 0
BBX 8 14 0 -2
BITMAP
0C
0C
3F
3F
C0
C0
30
30
0C
0C
FF
FF
0C
0C
ENDCHAR
STARTCHAR C0037-%
ENCODING 37
SWIDTH 875 0
DWIDTH 14 0
BBX 12 12 1 0
BITMAP
6040
9040
9080
9100
9100
6200
0460
0490
0890
1090
1090
2060
ENDCHAR
STARTCHAR C0038-&
ENCODING 38
SWIDTH 687 0
DWIDTH 11 0
BBX 10 12 0 0
BITMAP
0C00
0C00
3300
3300
3CC0
3CC0
C300
C300
C300
C300
3CC0
3CC0
ENDCHAR
STARTCHAR C0039-'
ENCODING 39
SWIDTH 187 0
DWIDTH 3 0
BBX 2 4 0 8
BITMAP
C0
C0
C0
C0
ENDCHAR
STARTCHAR C0040-(
ENCODING 40
SWIDTH 437 0
DWIDTH 7 0
BBX 6 12 0 0
BITMAP
3C
3C
C0
C0
C0
C0
C0
C0
C0
C0
3C
3C
ENDCHAR
STARTCHAR C0041-)
ENCODING 41
SWIDTH 437 0
DWIDTH 7 0
BBX 6 12 0 0
BITMAP
F0
F0
0C
0C
0C
0C
0C
0C
0C
0C
F0
F0
ENDCHAR
STARTCHAR C0042-*
ENCODING 42
SWIDTH 437 0
DWIDTH 7 0
BBX 6 6 0 6
BITMAP
CC
CC
78
78
CC
CC
ENDCHAR
STARTCHAR C0043-+
ENCODING 43
SWIDTH 625 0
DWIDTH 10 0
BBX 8 8 1 2
BITMAP
18
18
18
FF
FF
18
18
18
ENDCHAR
STARTCHAR C0044-,
ENCODING 44
SWIDTH 187 0
DWIDTH 3 0
BBX 2 4 0 -2
BITMAP
C0
C0
40
80
ENDCHAR
STARTCHAR C0045--
ENCODING 45
SWIDTH 375 0
DWIDTH 6 0
BBX 5 2 0 3
BITMAP
F8
F8
ENDCHAR
STARTCHAR C0046-.
ENCODING 46
SWIDTH 187 0
DWIDTH 3 0
BBX 2 2 0 0
BITMAP
C0
C0
ENDCHAR
STARTCHAR C0047-/
ENCODING 47
SWIDTH 562 0
DWIDTH 9 0
BBX 8 12 0 0
BITMAP
01
01
02
04
04
08
10
10
20
40
40
80
ENDCHAR
STARTCHAR C0048-0
ENCODING 48
SWIDTH 562 0
DWIDTH 9 0
BBX 8 12 0 0
BITMAP
3C
3C
C3
C7
C7
DB
DB
E3
E3
C3
3C
3C
ENDCHAR
STARTCHAR C0049-1
ENCODING 49
SWIDTH 437 0
DWIDTH 7 0
BBX 6 12 0 0
BITMAP
30
30
F0
F0
30
30
30
30
30
30
FC
FC
ENDCHAR
STARTCHAR C0050-2
ENCODING 50
SWIDTH 562 0
DWIDTH 9 0
BBX 8 12 0 0
BITMAP
3C
3C
C3
C3
0C
0C
30
30
C0
C0
FF
FF
ENDCHAR
STARTCHAR C0051-3
ENCODING 51
SWIDTH 562 0
DWIDTH 9 0
BBX 8 12 0 0
BITMAP
3C
3C
C3
C3
03
0C
0C
03
C3
C3
3C
3C
ENDCHAR
STARTCHAR C0052-4
ENCODING 52
SWIDTH 625 0
DWIDTH 10 0
BBX 9 12 0 0
BITMAP
0300
0300
0F00
0F00
3300
3300
C300
C300
FF80
FF80
0300
0300
ENDCHAR
STARTCHAR C0053-5
ENCODING 53
SWIDTH 687 0
DWIDTH 11 0
BBX 10 12 0 0
BITMAP
FF00
FF00
C000
C000
C000
C000
3F00
3F00
80C0
80C0
7F00
7F00
ENDCHAR
STARTCHAR C0054-6
ENCODING 54
SWIDTH 625 0
DWIDTH 10 0
BBX 9 12 0 0
BITMAP
0F00
0F00
3000
3000
C000
C000
FE00
FE00
C180
C180
3E00
3E00
ENDCHAR
STARTCHAR C0055-7
ENCODING 55
SWIDTH 562 0
DWIDTH 9 0
BBX 8 12 0 0
BITMAP
FF
FF
C3
C3
0C
0C
30
30
30
30
30
30
ENDCHAR
STARTCHAR C0056-8
ENCODING 56
SWIDTH 562 0
DWIDTH 9 0
BBX 8 12 0 0
BITMAP
3C
3C
C3
C3
C3
3C
3C
C3
C3
C3
3C
3C
ENDCHAR
STARTCHAR C0057-9
ENCODING 57
SWIDTH 562 0
DWIDTH 9 0
BBX 8 12 0 0
BITMAP
3C
3C
C3
C3
C3
C3
3F
3F
03
03
3C
3C
ENDCHAR
STARTCHAR C0058-:
ENCODING 58
SWIDTH 250 0
DWIDTH 4 0
BBX 2 9 1 0
BITMAP
C0
C0
00
00
00
00
00
C0
C0
ENDCHAR
STARTCHAR C0059-;
ENCODING 59
SWIDTH 250 0
DWIDTH 4 0
BBX 2 11 1 -2
BITMAP
C0
C0
00
00
00
00
00
C0
C0
40
80
ENDCHAR
STARTCHAR C0060-<
ENCODING 60
SWIDTH 437 0
DWIDTH 7 0
BBX 6 8 0 2
BITMAP
0C
0C
30
C0
C0
30
0C
0C
ENDCHAR
STARTCHAR C0061-=
ENCODING 61
SWIDTH 562 0
DWIDTH 9 0
BBX 8 6 0 3
BITMAP
FF
FF
00
00
FF
FF
ENDCHAR
STARTCHAR C0062->
ENCODING 62
SWIDTH 437 0
DWIDTH 7 0
BBX 6 8 0 2
BITMAP
C0
C0
30
0C
0C
30
C0
C0
ENDCHAR
STARTCHAR C0063-?
ENCODING 63
SWIDTH 562 0
DWIDTH 9 0
BBX 8 12 0 0
BITMAP
3C
3C
C3
C3
03
0C
0C
30
30
00
30
30
ENDCHAR
STARTCHAR C0064-@
ENCODING 64
SWIDTH 937 0
DWIDTH 15 0
BBX 14 15 0 -3
BITMAP
3FF0
7FF8
C00C
C00C
C3EC
C3EC
CC6C
CC6C
CC6C
CC6C
CFFC
CFF0
C00C
7FF8
3FF0
ENDCHAR
STARTCHAR C0065-A
ENCODING 65
SWIDTH 625 0
DWIDTH 10 0
BBX 9 12 0 0
BITMAP
3E00
3E00
C180
C180
FF80
FF80
C180
C180
C180
C180
C180
C180
ENDCHAR
STARTCHAR C0066-B
ENCODING 66
SWIDTH 687 0
DWIDTH 11 0
BBX 10 12 0 0
BITMAP
FF00
FF00
C0C0
C0C0
C0C0
FF00
FF00
C0C0
C0C0
C0C0
FF00
FF00
ENDCHAR
STARTCHAR C0067-C
ENCODING 67
SWIDTH 750 0
DWIDTH 12 0
BBX 11 12 0 0
BITMAP
3FC0
3FC0
C060
C060
C000
C000
C000
C000
C060
C060
3FC0
3FC0
ENDCHAR
STARTCHAR C0068-D
ENCODING 68
SWIDTH 687 0
DWIDTH 11 0
BBX 10 12 0 0
BITMAP
FF00
FF00
C0C0
C0C0
C0C0
C0C0
C0C0
C0C0
C0C0
C0C0
FF00
FF00
ENDCHAR
STARTCHAR C0069-E
ENCODING 69
SWIDTH 687 0
DWIDTH 11 0
BBX 10 12 0 0
BITMAP
FFC0
FFC0
C000
C000
F800
F800
C000
C000
C000
C000
FFC0
FFC0
ENDCHAR
STARTCHAR C0070-F
ENCODING 70
SWIDTH 625 0
DWIDTH 10 0
BBX 9 12 0 0
BITMAP
FF80
FF80
C000
C000
FC00
FC00
C000
C000
C000
C000
C000
C000
ENDCHAR
STARTCHAR C0071-G
ENCODING 71
SWIDTH 750 0
DWIDTH 12 0
BBX 11 12 0 0
BITMAP
3FE0
3FE0
C000
C000
C1E0
C1E0
C060
C060
C060
C060
3F80
3F80
ENDCHAR
STARTCHAR C0072-H
ENCODING 72
SWIDTH 687 0
DWIDTH 11 0
BBX 10 12 0 0
BITMAP
C0C0
C0C0
C0C0
C0C0
C0C0
FFC0
FFC0
C0C0
C0C0
C0C0
C0C0
C0C0
ENDCHAR
STARTCHAR C0073-I
ENCODING 73
SWIDTH 375 0
DWIDTH 6 0
BBX 4 12 1 0
BITMAP
F0
F0
60
60
60
60
60
60
60
60
F0
F0
ENDCHAR
STARTCHAR C0074-J
ENCODING 74
SWIDTH 500 0
DWIDTH 8 0
BBX 7 12 0 0
BITMAP
06
06
06
06
06
06
06
06
C6
C6
38
38
ENDCHAR
STARTCHAR C0075-K
ENCODING 75
SWIDTH 625 0
DWIDTH 10 0
BBX 9 12 0 0
BITMAP
C000
C180
C180
C600
C600
F800
F800
C600
C600
C180
C180
C180
ENDCHAR
STARTCHAR C0076-L
ENCODING 76
SWIDTH 625 0
DWIDTH 10 0
BBX 9 12 0 0
BITMAP
C000
C000
C000
C000
C000
C000
C000
C000
C000
C000
FF80
FF80
ENDCHAR
STARTCHAR C0077-M
ENCODING 77
SWIDTH 687 0
DWIDTH 11 0
BBX 10 12 0 0
BITMAP
C0C0
C0C0
F3C0
F3C0
CCC0
CCC0
C0C0
C0C0
C0C0
C0C0
C0C0
C0C0
ENDCHAR
STARTCHAR C0078-N
ENCODING 78
SWIDTH 687 0
DWIDTH 11 0
BBX 10 12 0 0
BITMAP
C0C0
F0C0
F0C0
CCC0
CCC0
C3C0
C3C0
C0C0
C0C0
C0C0
C0C0
C0C0
ENDCHAR
STARTCHAR C0079-O
ENCODING 79
SWIDTH 812 0
DWIDTH 13 0
BBX 12 12 0 0
BITMAP
3FC0
3FC0
C030
C030
C030
C030
C030
C030
C030
C030
3FC0
3FC0
ENDCHAR
STARTCHAR C0080-P
ENCODING 80
SWIDTH 687 0
DWIDTH 11 0
BBX 10 12 0 0
BITMAP
FF00
FF00
C0C0
C0C0
FF00
FF00
C000
C000
C000
C000
C000
C000
ENDCHAR
STARTCHAR C0081-Q
ENCODING 81
SWIDTH 812 0
DWIDTH 13 0
BBX 12 12 0 0
BITMAP
3FC0
3FC0
C030
C030
C030
C030
C030
C030
C030
C330
3FC0
3FF0
ENDCHAR
STARTCHAR C0082-R
ENCODING 82
SWIDTH 812 0
DWIDTH 13 0
BBX 12 12 0 0
BITMAP
FF80
FF80
C060
C060
FF80
FF80
C300
C300
C0C0
C0C0
C030
C030
ENDCHAR
STARTCHAR C0083-S
ENCODING 83
SWIDTH 625 0
DWIDTH 10 0
BBX 9 12 0 0
BITMAP
3F80
3F80
C000
C000
3E00
3E00
0180
0180
0180
0180
FE00
FE00
ENDCHAR
STARTCHAR C0084-T
ENCODING 84
SWIDTH 687 0
DWIDTH 11 0
BBX 10 12 0 0
BITMAP
FFC0
FFC0
0C00
0C00
0C00
0C00
0C00
0C00
0C00
0C00
0C00
0C00
ENDCHAR
STARTCHAR C0085-U
ENCODING 85
SWIDTH 687 0
DWIDTH 11 0
BBX 9 12 1 0
BITMAP
C180
C180
C180
C180
C180
C180
C180
C180
C180
C180
3E00
3E00
ENDCHAR
STARTCHAR C0086-V
ENCODING 86
SWIDTH 687 0
DWIDTH 11 0
BBX 10 12 0 0
BITMAP
C0C0
C0C0
C0C0
C0C0
C0C0
3300
3300
3300
0C00
0C00
0C00
0C00
ENDCHAR
STARTCHAR C0087-W
ENCODING 87
SWIDTH 687 0
DWIDTH 11 0
BBX 10 12 0 0
BITMAP
C0C0
C0C0
C0C0
C0C0
C0C0
C0C0
CCC0
CCC0
F3C0
F3C0
C0C0
C0C0
ENDCHAR
STARTCHAR C0088-X
ENCODING 88
SWIDTH 687 0
DWIDTH 11 0
BBX 10 12 0 0
BITMAP
C0C0
C0C0
3300
3300
0C00
0C00
3300
3300
C0C0
C0C0
C0C0
C0C0
ENDCHAR
STARTCHAR C0089-Y
ENCODING 89
SWIDTH 687 0
DWIDTH 11 0
BBX 10 12 0 0
BITMAP
C0C0
C0C0
3300
3300
0C00
0C00
0C00
0C00
0C00
0C00
0C00
0C00
ENDCHAR
STARTCHAR C0090-Z
ENCODING 90
SWIDTH 687 0
DWIDTH 11 0
BBX 10 12 0 0
BITMAP
FFC0
FFC0
00C0
00C0
0300
0300
0C00
0C00
3000
3000
FFC0
FFC0
ENDCHAR
STARTCHAR C0091-[
ENCODING 91
SWIDTH 312 0
DWIDTH 5 0
BBX 4 15 0 -3
BITMAP
F0
F0
C0
C0
C0
C0
C0
C0
C0
C0
C0
C0
C0
F0
F0
ENDCHAR
STARTCHAR C0092-\
ENCODING 92
SWIDTH 562 0
DWIDTH 9 0
BBX 8 12 0 0
BITMAP
80
80
40
20
20
10
08
08
04
02
02
01
ENDCHAR
STARTCHAR C0093-]
ENCODING 93
SWIDTH 312 0
DWIDTH 5 0
BBX 4 15 0 -3
BITMAP
F0
F0
30
30
30
30
30
30
30
30
30
30
30
F0
F0
ENDCHAR
STARTCHAR C0094-^
ENCODING 94
SWIDTH 562 0
DWIDTH 9 0
BBX 8 6 0 6
BITMAP
18
18
66
66
81
81
ENDCHAR
STARTCHAR C0095-_
ENCODING 95
SWIDTH 625 0
DWIDTH 10 0
BBX 9 1 0 0
BITMAP
FF80
ENDCHAR
STARTCHAR C0096-`
ENCODING 96
SWIDTH 312 0
DWIDTH 5 0
BBX 3 3 1 9
BITMAP
80
40
20
ENDCHAR
STARTCHAR C0097-a
ENCODING 97
SWIDTH 625 0
DWIDTH 10 0
BBX 9 9 0 0
BITMAP
FE00
FE00
0180
3F80
3F80
C180
C180
3F80
3F80
ENDCHAR
STARTCHAR C0098-b
ENCODING 98
SWIDTH 687 0
DWIDTH 11 0
BBX 10 12 0 0
BITMAP
C000
C000
C000
C000
CF00
CF00
F0C0
F0C0
C0C0
C0C0
FF00
FF00
ENDCHAR
STARTCHAR C0099-c
ENCODING 99
SWIDTH 625 0
DWIDTH 10 0
BBX 9 9 0 0
BITMAP
3E00
3E00
C180
C180
C000
C180
C180
3E00
3E00
ENDCHAR
STARTCHAR C0100-d
ENCODING 100
SWIDTH 562 0
DWIDTH 9 0
BBX 8 12 0 0
BITMAP
03
03
03
3F
3F
C3
C3
C3
C3
C3
FF
FF
ENDCHAR
STARTCHAR C0101-e
ENCODING 101
SWIDTH 562 0
DWIDTH 9 0
BBX 8 9 0 0
BITMAP
3F
3F
C3
FF
FC
C0
C3
3F
3F
ENDCHAR
STARTCHAR C0102-f
ENCODING 102
SWIDTH 562 0
DWIDTH 9 0
BBX 8 12 0 0
BITMAP
3E
3E
30
FF
FF
30
30
30
30
30
30
30
ENDCHAR
STARTCHAR C0103-g
ENCODING 103
SWIDTH 562 0
DWIDTH 9 0
BBX 8 13 0 -4
BITMAP
3F
3F
C3
C3
3F
3F
03
03
03
C3
C3
3C
3C
ENDCHAR
STARTCHAR C0104-h
ENCODING 104
SWIDTH 562 0
DWIDTH 9 0
BBX 8 12 0 0
BITMAP
C0
C0
C0
C0
CC
CC
F3
F3
C3
C3
C3
C3
ENDCHAR
STARTCHAR C0105-i
ENCODING 105
SWIDTH 187 0
DWIDTH 3 0
BBX 2 12 0 0
BITMAP
C0
C0
00
C0
C0
C0
C0
C0
C0
C0
C0
C0
ENDCHAR
STARTCHAR C0106-j
ENCODING 106
SWIDTH 500 0
DWIDTH 8 0
BBX 7 12 0 -2
BITMAP
06
06
00
06
06
06
06
06
C6
C6
38
38
ENDCHAR
STARTCHAR C0107-k
ENCODING 107
SWIDTH 562 0
DWIDTH 9 0
BBX 8 12 0 0
BITMAP
C0
C0
C3
C3
CC
CC
F0
F0
CC
CC
C3
C3
ENDCHAR
STARTCHAR C0108-l
ENCODING 108
SWIDTH 187 0
DWIDTH 3 0
BBX 2 12 0 0
BITMAP
C0
C0
C0
C0
C0
C0
C0
C0
C0
C0
C0
C0
ENDCHAR
STARTCHAR C0109-m
ENCODING 109
SWIDTH 937 0
DWIDTH 15 0
BBX 14 9 0 0
BITMAP
FCF0
FCF0
C30C
C30C
C30C
C30C
C30C
C30C
C30C
ENDCHAR
STARTCHAR C0110-n
ENCODING 110
SWIDTH 625 0
DWIDTH 10 0
BBX 9 9 0 0
BITMAP
FE00
FE00
C180
C180
C180
C180
C180
C180
C180
ENDCHAR
STARTCHAR C0111-o
ENCODING 111
SWIDTH 562 0
DWIDTH 9 0
BBX 8 9 0 0
BITMAP
3C
3C
C3
C3
C3
C3
C3
3C
3C
ENDCHAR
STARTCHAR C0112-p
ENCODING 112
SWIDTH 625 0
DWIDTH 10 0
BBX 9 12 0 -3
BITMAP
CE00
CE00
F180
F180
C180
C180
FE00
FE00
C000
C000
C000
C000
ENDCHAR
STARTCHAR C0113-q
ENCODING 113
SWIDTH 562 0
DWIDTH 9 0
BBX 8 12 0 -3
BITMAP
3B
3F
C7
C3
C3
C3
C3
3F
3F
03
03
03
ENDCHAR
STARTCHAR C0114-r
ENCODING 114
SWIDTH 500 0
DWIDTH 8 0
BBX 7 9 0 0
BITMAP
DC
FE
E2
C0
C0
C0
C0
C0
C0
ENDCHAR
STARTCHAR C0115-s
ENCODING 115
SWIDTH 500 0
DWIDTH 8 0
BBX 7 10 0 0
BITMAP
3E
3E
C0
C0
38
38
06
06
F8
F8
ENDCHAR
STARTCHAR C0116-t
ENCODING 116
SWIDTH 375 0
DWIDTH 6 0
BBX 5 11 0 0
BITMAP
60
60
F0
F0
60
60
60
60
60
18
18
ENDCHAR
STARTCHAR C0117-u
ENCODING 117
SWIDTH 562 0
DWIDTH 9 0
BBX 8 9 0 0
BITMAP
C3
C3
C3
C3
C3
C3
C3
3F
3F
ENDCHAR
STARTCHAR C0118-v
ENCODING 118
SWIDTH 687 0
DWIDTH 11 0
BBX 10 7 0 0
BITMAP
C0C0
C0C0
C0C0
3300
3300
0C00
0C00
ENDCHAR
STARTCHAR C0119-w
ENCODING 119
SWIDTH 750 0
DWIDTH 12 0
BBX 11 8 0 0
BITMAP
C060
C060
C060
C660
C660
C660
3FE0
3FE0
ENDCHAR
STARTCHAR C0120-x
ENCODING 120
SWIDTH 687 0
DWIDTH 11 0
BBX 10 10 0 0
BITMAP
C0C0
C0C0
3300
3300
0C00
0C00
3300
3300
C0C0
C0C0
ENDCHAR
STARTCHAR C0121-y
ENCODING 121
SWIDTH 562 0
DWIDTH 9 0
BBX 8 11 0 -2
BITMAP
C3
C3
C3
C3
C3
3F
3F
03
03
FC
FC
ENDCHAR
STARTCHAR C0122-z
ENCODING 122
SWIDTH 562 0
DWIDTH 9 0
BBX 8 10 0 0
BITMAP
FF
FF
06
06
18
18
60
60
FF
FF
ENDCHAR
STARTCHAR C0123-{
ENCODING 123
SWIDTH 375 0
DWIDTH 6 0
BBX 5 16 0 -4
BITMAP
18
18
60
60
60
60
60
C0
60
60
60
60
60
60
18
18
ENDCHAR
STARTCHAR C0124-|
ENCODING 124
SWIDTH 187 0
DWIDTH 3 0
BBX 2 16 0 -4
BITMAP
C0
C0
C0
C0
C0
C0
C0
C0
C0
C0
C0
C0
C0
C0
C0
C0
ENDCHAR
STARTCHAR C0125-}
ENCODING 125
SWIDTH 375 0
DWIDTH 6 0
BBX 5 16 0 -4
BITMAP
C0
C0
30
30
30
30
30
18
30
30
30
30
30
30
C0
C0
ENDCHAR
STARTCHAR C0126-~
ENCODING 126
SWIDTH 687 0
DWIDTH 11 0
BBX 10 2 0 5
BITMAP
38C0
C700
ENDCHAR
STARTCHAR C0127
ENCODING 127
SWIDTH 375 0
DWIDTH 6 0
BBX 5 11 1 0
BITMAP
F8
88
88
88
88
88
88
88
88
88
F8
ENDCHAR
STARTCHAR C0128
ENCODING 128
SWIDTH 625 0
DWIDTH 10 0
BBX 9 13 0 -1
BITMAP
1E00
3F80
7180
6000
FF00
FF00
6000
FE00
FE00
6000
3100
1F00
0E00
ENDCHAR
STARTCHAR C0129
ENCODING 129
SWIDTH 375 0
DWIDTH 6 0
BBX 5 11 1 0
BITMAP
F8
88
88
88
88
88
88
88
88
88
F8
ENDCHAR
STARTCHAR C0130
ENCODING 130
SWIDTH 375 0
DWIDTH 6 0
BBX 5 11 1 0
BITMAP
F8
88
88
88
88
88
88
88
88
88
F8
ENDCHAR
STARTCHAR C0131
ENCODING 131
SWIDTH 375 0
DWIDTH 6 0
BBX 5 11 1 0
BITMAP
F8
88
88
88
88
88
88
88
88
88
F8
ENDCHAR
STARTCHAR C0132
ENCODING 132
SWIDTH 375 0
DWIDTH 6 0
BBX 5 11 1 0
BITMAP
F8
88
88
88
88
88
88
88
88
88
F8
ENDCHAR
STARTCHAR C0133
ENCODING 133
SWIDTH 375 0
DWIDTH 6 0
BBX 5 11 1 0
BITMAP
F8
88
88
88
88
88
88
88
88
88
F8
ENDCHAR
STARTCHAR C0134
ENCODING 134
SWIDTH 375 0
DWIDTH 6 0
BBX 5 11 1 0
BITMAP
F8
88
88
88
88
88
88
88
88
88
F8
ENDCHAR
STARTCHAR C0135
ENCODING 135
SWIDTH 375 0
DWIDTH 6 0
BBX 5 11 1 0
BITMAP
F8
88
88
88
88
88
88
88
88
88
F8
ENDCHAR
STARTCHAR C0136
ENCODING 136
SWIDTH 375 0
DWIDTH 6 0
BBX 5 11 1 0
BITMAP
F8
88
88
88
88
88
88
88
88
88
F8
ENDCHAR
STARTCHAR C0137
ENCODING 137
SWIDTH 375 0
DWIDTH 6 0
BBX 5 11 1 0
BITMAP
F8
88
88
88
88
88
88
88
88
88
F8
ENDCHAR
STARTCHAR C0138
ENCODING 138
SWIDTH 375 0
DWIDTH 6 0
BBX 5 11 1 0
BITMAP
F8
88
88
88
88
88
88
88
88
88
F8
ENDCHAR
STARTCHAR C0139
ENCODING 139
SWIDTH 375 0
DWIDTH 6 0
BBX 5 11 1 0
BITMAP
F8
88
88
88
88
88
88
88
88
88
F8
ENDCHAR
STARTCHAR C0140
ENCODING 140
SWIDTH 375 0
DWIDTH 6 0
BBX 5 11 1 0
BITMAP
F8
88
88
88
88
88
88
88
88
88
F8
ENDCHAR
STARTCHAR C0141
ENCODING 141
SWIDTH 375 0
DWIDTH 6 0
BBX 5 11 1 0
BITMAP
F8
88
88
88
88
88
88
88
88
88
F8
ENDCHAR
STARTCHAR C0142
ENCODING 142
SWIDTH 375 0
DWIDTH 6 0
BBX 5 11 1 0
BITMAP
F8
88
88
88
88
88
88
88
88
88
F8
ENDCHAR
STARTCHAR C0143
ENCODING 143
SWIDTH 375 0
DWIDTH 6 0
BBX 5 11 1 0
BITMAP
F8
88
88
88
88
88
88
88
88
88
F8
ENDCHAR
STARTCHAR C0144
ENCODING 144
SWIDTH 375 0
DWIDTH 6 0
BBX 5 11 1 0
BITMAP
F8
88
88
88
88
88
88
88
88
88
F8
ENDCHAR
STARTCHAR C0145
ENCODING 145
SWIDTH 375 0
DWIDTH 6 0
BBX 5 11 1 0
BITMAP
F8
88
88
88
88
88
88
88
88
88
F8
ENDCHAR
STARTCHAR C0146
ENCODING 146
SWIDTH 375 0
DWIDTH 6 0
BBX 5 11 1 0
BITMAP
F8
88
88
88
88
88
88
88
88
88
F8
ENDCHAR
STARTCHAR C0147
ENCODING 147
SWIDTH 375 0
DWIDTH 6 0
BBX 5 11 1 0
BITMAP
F8
88
88
88
88
88
88
88
88
88
F8
ENDCHAR
STARTCHAR C0148
ENCODING 148
SWIDTH 375 0
DWIDTH 6 0
BBX 5 11 1 0
BITMAP
F8
88
88
88
88
88
88
88
88
88
F8
ENDCHAR
STARTCHAR C0149
ENCODING 149
SWIDTH 375 0
DWIDTH 6 0
BBX 5 11 1 0
BITMAP
F8
88
88
88
88
88
88
88
88
88
F8
ENDCHAR
STARTCHAR C0150
ENCODING 150
SWIDTH 375 0
DWIDTH 6 0
BBX 5 11 1 0
BITMAP
F8
88
88
88
88
88
88
88
88
88
F8
ENDCHAR
STARTCHAR C0151
ENCODING 151
SWIDTH 375 0
DWIDTH 6 0
BBX 5 11 1 0
BITMAP
F8
88
88
88
88
88
88
88
88
88
F8
ENDCHAR
STARTCHAR C0152
ENCODING 152
SWIDTH 375 0
DWIDTH 6 0
BBX 5 11 1 0
BITMAP
F8
88
88
88
88
88
88
88
88
88
F8
ENDCHAR
STARTCHAR C0153
ENCODING 153
SWIDTH 375 0
DWIDTH 6 0
BBX 5 11 1 0
BITMAP
F8
88
88
88
88
88
88
88
88
88
F8
ENDCHAR
STARTCHAR C0154
ENCODING 154
SWIDTH 375 0
DWIDTH 6 0
BBX 5 11 1 0
BITMAP
F8
88
88
88
88
88
88
88
88
88
F8
ENDCHAR
STARTCHAR C0155
ENCODING 155
SWIDTH 375 0
DWIDTH 6 0
BBX 5 11 1 0
BITMAP
F8
88
88
88
88
88
88
88
88
88
F8
ENDCHAR
STARTCHAR C0156
ENCODING 156
SWIDTH 375 0
DWIDTH 6 0
BBX 5 11 1 0
BITMAP
F8
88
88
88
88
88
88
88
88
88
F8
ENDCHAR
STARTCHAR C0157
ENCODING 157
SWIDTH 375 0
DWIDTH 6 0
BBX 5 11 1 0
BITMAP
F8
88
88
88
88
88
88
88
88
88
F8
ENDCHAR
STARTCHAR C0158
ENCODING 158
SWIDTH 375 0
DWIDTH 6 0
BBX 5 11 1 0
BITMAP
F8
88
88
88
88
88
88
88
88
88
F8
ENDCHAR
STARTCHAR C0159
ENCODING 159
SWIDTH 375 0
DWIDTH 6 0
BBX 5 11 1 0
BITMAP
F8
88
88
88
88
88
88
88
88
88
F8
ENDCHAR
STARTCHAR C0160
ENCODING 160
SWIDTH 312 0
DWIDTH 5 0
BBX 1 1 0 -1
BITMAP
00
ENDCHAR
STARTCHAR C0161
ENCODING 161
SWIDTH 375 0
DWIDTH 6 0
BBX 4 11 1 -3
BITMAP
60
60
00
60
60
60
60
60
60
60
F0
ENDCHAR
STARTCHAR C0162
ENCODING 162
SWIDTH 562 0
DWIDTH 9 0
BBX 8 15 0 -3
BITMAP
02
02
3C
3C
C7
C7
C8
D0
D3
E3
3C
3C
40
80
80
ENDCHAR
STARTCHAR C0163
ENCODING 163
SWIDTH 562 0
DWIDTH 9 0
BBX 8 12 0 0
BITMAP
1C
3E
63
63
60
FC
FC
30
30
60
FF
FF
ENDCHAR
STARTCHAR C0164
ENCODING 164
SWIDTH 625 0
DWIDTH 10 0
BBX 9 9 0 1
BITMAP
8080
5D00
3E00
6300
6300
6300
3E00
5D00
8080
ENDCHAR
STARTCHAR C0165
ENCODING 165
SWIDTH 625 0
DWIDTH 10 0
BBX 9 12 0 -1
BITMAP
8080
8080
4100
2200
1C00
FF80
FF80
0800
FF80
FF80
0800
0800
ENDCHAR
STARTCHAR C0166
ENCODING 166
SWIDTH 250 0
DWIDTH 4 0
BBX 2 16 1 -4
BITMAP
C0
C0
C0
C0
C0
C0
C0
00
00
C0
C0
C0
C0
C0
C0
C0
ENDCHAR
STARTCHAR C0167
ENCODING 167
SWIDTH 562 0
DWIDTH 9 0
BBX 7 14 1 -3
BITMAP
38
44
40
20
50
88
84
42
34
08
04
84
44
38
ENDCHAR
STARTCHAR C0168
ENCODING 168
SWIDTH 375 0
DWIDTH 6 0
BBX 5 2 0 10
BITMAP
D8
D8
ENDCHAR
STARTCHAR C0169
ENCODING 169
SWIDTH 812 0
DWIDTH 13 0
BBX 12 12 0 0
BITMAP
0F00
1080
2040
4620
8910
9010
9010
9010
4920
2640
1080
0F00
ENDCHAR
STARTCHAR C0170
ENCODING 170
SWIDTH 375 0
DWIDTH 6 0
BBX 5 11 1 0
BITMAP
F8
88
88
88
88
88
88
88
88
88
F8
ENDCHAR
STARTCHAR C0171
ENCODING 171
SWIDTH 375 0
DWIDTH 6 0
BBX 5 11 1 0
BITMAP
F8
88
88
88
88
88
88
88
88
88
F8
ENDCHAR
STARTCHAR C0172
ENCODING 172
SWIDTH 375 0
DWIDTH 6 0
BBX 5 11 1 0
BITMAP
F8
88
88
88
88
88
88
88
88
88
F8
ENDCHAR
STARTCHAR C0173
ENCODING 173
SWIDTH 375 0
DWIDTH 6 0
BBX 5 11 1 0
BITMAP
F8
88
88
88
88
88
88
88
88
88
F8
ENDCHAR
STARTCHAR C0174
ENCODING 174
SWIDTH 375 0
DWIDTH 6 0
BBX 5 11 1 0
BITMAP
F8
88
88
88
88
88
88
88
88
88
F8
ENDCHAR
STARTCHAR C0175
ENCODING 175
SWIDTH 375 0
DWIDTH 6 0
BBX 5 11 1 0
BITMAP
F8
88
88
88
88
88
88
88
88
88
F8
ENDCHAR
STARTCHAR C0176
ENCODING 176
SWIDTH 375 0
DWIDTH 6 0
BBX 5 11 1 0
BITMAP
F8
88
88
88
88
88
88
88
88
88
F8
ENDCHAR
STARTCHAR C0177
ENCODING 177
SWIDTH 375 0
DWIDTH 6 0
BBX 5 11 1 0
BITMAP
F8
88
88
88
88
88
88
88
88
88
F8
ENDCHAR
STARTCHAR C0178
ENCODING 178
SWIDTH 375 0
DWIDTH 6 0
BBX 5 11 1 0
BITMAP
F8
88
88
88
88
88
88
88
88
88
F8
ENDCHAR
STARTCHAR C0179
ENCODING 179
SWIDTH 375 0
DWIDTH 6 0
BBX 5 11 1 0
BITMAP
F8
88
88
88
88
88
88
88
88
88
F8
ENDCHAR
STARTCHAR C0180
ENCODING 180
SWIDTH 375 0
DWIDTH 6 0
BBX 5 11 1 0
BITMAP
F8
88
88
88
88
88
88
88
88
88
F8
ENDCHAR
STARTCHAR C0181
ENCODING 181
SWIDTH 375 0
DWIDTH 6 0
BBX 5 11 1 0
BITMAP
F8
88
88
88
88
88
88
88
88
88
F8
ENDCHAR
STARTCHAR C0182
ENCODING 182
SWIDTH 375 0
DWIDTH 6 0
BBX 5 11 1 0
BITMAP
F8
88
88
88
88
88
88
88
88
88
F8
ENDCHAR
STARTCHAR C0183
ENCODING 183
SWIDTH 375 0
DWIDTH 6 0
BBX 5 11 1 0
BITMAP
F8
88
88
88
88
88
88
88
88
88
F8
ENDCHAR
STARTCHAR C0184
ENCODING 184
SWIDTH 375 0
DWIDTH 6 0
BBX 5 11 1 0
BITMAP
F8
88
88
88
88
88
88
88
88
88
F8
ENDCHAR
STARTCHAR C0185
ENCODING 185
SWIDTH 375 0
DWIDTH 6 0
BBX 5 11 1 0
BITMAP
F8
88
88
88
88
88
88
88
88
88
F8
ENDCHAR
STARTCHAR C0186
ENCODING 186
SWIDTH 375 0
DWIDTH 6 0
BBX 5 11 1 0
BITMAP
F8
88
88
88
88
88
88
88
88
88
F8
ENDCHAR
STARTCHAR C0187
ENCODING 187
SWIDTH 375 0
DWIDTH 6 0
BBX 5 11 1 0
BITMAP
F8
88
88
88
88
88
88
88
88
88
F8
ENDCHAR
STARTCHAR C0188
ENCODING 188
SWIDTH 375 0
DWIDTH 6 0
BBX 5 11 1 0
BITMAP
F8
88
88
88
88
88
88
88
88
88
F8
ENDCHAR
STARTCHAR C0189
ENCODING 189
SWIDTH 375 0
DWIDTH 6 0
BBX 5 11 1 0
BITMAP
F8
88
88
88
88
88
88
88
88
88
F8
ENDCHAR
STARTCHAR C0190
ENCODING 190
SWIDTH 375 0
DWIDTH 6 0
BBX 5 11 1 0
BITMAP
F8
88
88
88
88
88
88
88
88
88
F8
ENDCHAR
STARTCHAR C0191
ENCODING 191
SWIDTH 375 0
DWIDTH 6 0
BBX 5 11 1 0
BITMAP
F8
88
88
88
88
88
88
88
88
88
F8
ENDCHAR
STARTCHAR C0192
ENCODING 192
SWIDTH 375 0
DWIDTH 6 0
BBX 5 11 1 0
BITMAP
F8
88
88
88
88
88
88
88
88
88
F8
ENDCHAR
STARTCHAR C0193
ENCODING 193
SWIDTH 375 0
DWIDTH 6 0
BBX 5 11 1 0
BITMAP
F8
88
88
88
88
88
88
88
88
88
F8
ENDCHAR
STARTCHAR C0194
ENCODING 194
SWIDTH 375 0
DWIDTH 6 0
BBX 5 11 1 0
BITMAP
F8
88
88
88
88
88
88
88
88
88
F8
ENDCHAR
STARTCHAR C0195
ENCODING 195
SWIDTH 375 0
DWIDTH 6 0
BBX 5 11 1 0
BITMAP
F8
88
88
88
88
88
88
88
88
88
F8
ENDCHAR
STARTCHAR C0196
ENCODING 196
SWIDTH 375 0
DWIDTH 6 0
BBX 5 11 1 0
BITMAP
F8
88
88
88
88
88
88
88
88
88
F8
ENDCHAR
STARTCHAR C0197
ENCODING 197
SWIDTH 375 0
DWIDTH 6 0
BBX 5 11 1 0
BITMAP
F8
88
88
88
88
88
88
88
88
88
F8
ENDCHAR
STARTCHAR C0198
ENCODING 198
SWIDTH 375 0
DWIDTH 6 0
BBX 5 11 1 0
BITMAP
F8
88
88
88
88
88
88
88
88
88
F8
ENDCHAR
STARTCHAR C0199
ENCODING 199
SWIDTH 375 0
DWIDTH 6 0
BBX 5 11 1 0
BITMAP
F8
88
88
88
88
88
88
88
88
88
F8
ENDCHAR
STARTCHAR C0200
ENCODING 200
SWIDTH 375 0
DWIDTH 6 0
BBX 5 11 1 0
BITMAP
F8
88
88
88
88
88
88
88
88
88
F8
ENDCHAR
STARTCHAR C0201
ENCODING 201
SWIDTH 375 0
DWIDTH 6 0
BBX 5 11 1 0
BITMAP
F8
88
88
88
88
88
88
88
88
88
F8
ENDCHAR
STARTCHAR C0202
ENCODING 202
SWIDTH 375 0
DWIDTH 6 0
BBX 5 11 1 0
BITMAP
F8
88
88
88
88
88
88
88
88
88
F8
ENDCHAR
STARTCHAR C0203
ENCODING 203
SWIDTH 375 0
DWIDTH 6 0
BBX 5 11 1 0
BITMAP
F8
88
88
88
88
88
88
88
88
88
F8
ENDCHAR
STARTCHAR C0204
ENCODING 204
SWIDTH 375 0
DWIDTH 6 0
BBX 5 11 1 0
BITMAP
F8
88
88
88
88
88
88
88
88
88
F8
ENDCHAR
STARTCHAR C0205
ENCODING 205
SWIDTH 375 0
DWIDTH 6 0
BBX 5 11 1 0
BITMAP
F8
88
88
88
88
88
88
88
88
88
F8
ENDCHAR
STARTCHAR C0206
ENCODING 206
SWIDTH 375 0
DWIDTH 6 0
BBX 5 11 1 0
BITMAP
F8
88
88
88
88
88
88
88
88
88
F8
ENDCHAR
STARTCHAR C0207
ENCODING 207
SWIDTH 375 0
DWIDTH 6 0
BBX 5 11 1 0
BITMAP
F8
88
88
88
88
88
88
88
88
88
F8
ENDCHAR
STARTCHAR C0208
ENCODING 208
SWIDTH 375 0
DWIDTH 6 0
BBX 5 11 1 0
BITMAP
F8
88
88
88
88
88
88
88
88
88
F8
ENDCHAR
STARTCHAR C0209
ENCODING 209
SWIDTH 375 0
DWIDTH 6 0
BBX 5 11 1 0
BITMAP
F8
88
88
88
88
88
88
88
88
88
F8
ENDCHAR
STARTCHAR C0210
ENCODING 210
SWIDTH 375 0
DWIDTH 6 0
BBX 5 11 1 0
BITMAP
F8
88
88
88
88
88
88
88
88
88
F8
ENDCHAR
STARTCHAR C0211
ENCODING 211
SWIDTH 375 0
DWIDTH 6 0
BBX 5 11 1 0
BITMAP
F8
88
88
88
88
88
88
88
88
88
F8
ENDCHAR
STARTCHAR C0212
ENCODING 212
SWIDTH 375 0
DWIDTH 6 0
BBX 5 11 1 0
BITMAP
F8
88
88
88
88
88
88
88
88
88
F8
ENDCHAR
STARTCHAR C0213
ENCODING 213
SWIDTH 375 0
DWIDTH 6 0
BBX 5 11 1 0
BITMAP
F8
88
88
88
88
88
88
88
88
88
F8
ENDCHAR
STARTCHAR C0214
ENCODING 214
SWIDTH 375 0
DWIDTH 6 0
BBX 5 11 1 0
BITMAP
F8
88
88
88
88
88
88
88
88
88
F8
ENDCHAR
STARTCHAR C0215
ENCODING 215
SWIDTH 375 0
DWIDTH 6 0
BBX 5 11 1 0
BITMAP
F8
88
88
88
88
88
88
88
88
88
F8
ENDCHAR
STARTCHAR C0216
ENCODING 216
SWIDTH 375 0
DWIDTH 6 0
BBX 5 11 1 0
BITMAP
F8
88
88
88
88
88
88
88
88
88
F8
ENDCHAR
STARTCHAR C0217
ENCODING 217
SWIDTH 375 0
DWIDTH 6 0
BBX 5 11 1 0
BITMAP
F8
88
88
88
88
88
88
88
88
88
F8
ENDCHAR
STARTCHAR C0218
ENCODING 218
SWIDTH 375 0
DWIDTH 6 0
BBX 5 11 1 0
BITMAP
F8
88
88
88
88
88
88
88
88
88
F8
ENDCHAR
STARTCHAR C0219
ENCODING 219
SWIDTH 375 0
DWIDTH 6 0
BBX 5 11 1 0
BITMAP
F8
88
88
88
88
88
88
88
88
88
F8
ENDCHAR
STARTCHAR C0220
ENCODING 220
SWIDTH 375 0
DWIDTH 6 0
BBX 5 11 1 0
BITMAP
F8
88
88
88
88
88
88
88
88
88
F8
ENDCHAR
STARTCHAR C0221
ENCODING 221
SWIDTH 375 0
DWIDTH 6 0
BBX 5 11 1 0
BITMAP
F8
88
88
88
88
88
88
88
88
88
F8
ENDCHAR
STARTCHAR C0222
ENCODING 222
SWIDTH 375 0
DWIDTH 6 0
BBX 5 11 1 0
BITMAP
F8
88
88
88
88
88
88
88
88
88
F8
ENDCHAR
STARTCHAR C0223
ENCODING 223
SWIDTH 375 0
DWIDTH 6 0
BBX 5 11 1 0
BITMAP
F8
88
88
88
88
88
88
88
88
88
F8
ENDCHAR
STARTCHAR C0224
ENCODING 224
SWIDTH 375 0
DWIDTH 6 0
BBX 5 11 1 0
BITMAP
F8
88
88
88
88
88
88
88
88
88
F8
ENDCHAR
STARTCHAR C0225
ENCODING 225
SWIDTH 375 0
DWIDTH 6 0
BBX 5 11 1 0
BITMAP
F8
88
88
88
88
88
88
88
88
88
F8
ENDCHAR
STARTCHAR C0226
ENCODING 226
SWIDTH 375 0
DWIDTH 6 0
BBX 5 11 1 0
BITMAP
F8
88
88
88
88
88
88
88
88
88
F8
ENDCHAR
STARTCHAR C0227
ENCODING 227
SWIDTH 375 0
DWIDTH 6 0
BBX 5 11 1 0
BITMAP
F8
88
88
88
88
88
88
88
88
88
F8
ENDCHAR
STARTCHAR C0228
ENCODING 228
SWIDTH 375 0
DWIDTH 6 0
BBX 5 11 1 0
BITMAP
F8
88
88
88
88
88
88
88
88
88
F8
ENDCHAR
STARTCHAR C0229
ENCODING 229
SWIDTH 375 0
DWIDTH 6 0
BBX 5 11 1 0
BITMAP
F8
88
88
88
88
88
88
88
88
88
F8
ENDCHAR
STARTCHAR C0230
ENCODING 230
SWIDTH 375 0
DWIDTH 6 0
BBX 5 11 1 0
BITMAP
F8
88
88
88
88
88
88
88
88
88
F8
ENDCHAR
STARTCHAR C0231
ENCODING 231
SWIDTH 375 0
DWIDTH 6 0
BBX 5 11 1 0
BITMAP
F8
88
88
88
88
88
88
88
88
88
F8
ENDCHAR
STARTCHAR C0232
ENCODING 232
SWIDTH 375 0
DWIDTH 6 0
BBX 5 11 1 0
BITMAP
F8
88
88
88
88
88
88
88
88
88
F8
ENDCHAR
STARTCHAR C0233
ENCODING 233
SWIDTH 375 0
DWIDTH 6 0
BBX 5 11 1 0
BITMAP
F8
88
88
88
88
88
88
88
88
88
F8
ENDCHAR
STARTCHAR C0234
ENCODING 234
SWIDTH 375 0
DWIDTH 6 0
BBX 5 11 1 0
BITMAP
F8
88
88
88
88
88
88
88
88
88
F8
ENDCHAR
STARTCHAR C0235
ENCODING 235
SWIDTH 375 0
DWIDTH 6 0
BBX 5 11 1 0
BITMAP
F8
88
88
88
88
88
88
88
88
88
F8
ENDCHAR
STARTCHAR C0236
ENCODING 236
SWIDTH 375 0
DWIDTH 6 0
BBX 5 11 1 0
BITMAP
F8
88
88
88
88
88
88
88
88
88
F8
ENDCHAR
STARTCHAR C0237
ENCODING 237
SWIDTH 375 0
DWIDTH 6 0
BBX 5 11 1 0
BITMAP
F8
88
88
88
88
88
88
88
88
88
F8
ENDCHAR
STARTCHAR C0238
ENCODING 238
SWIDTH 375 0
DWIDTH 6 0
BBX 5 11 1 0
BITMAP
F8
88
88
88
88
88
88
88
88
88
F8
ENDCHAR
STARTCHAR C0239
ENCODING 239
SWIDTH 375 0
DWIDTH 6 0
BBX 5 11 1 0
BITMAP
F8
88
88
88
88
88
88
88
88
88
F8
ENDCHAR
STARTCHAR C0240
ENCODING 240
SWIDTH 375 0
DWIDTH 6 0
BBX 5 11 1 0
BITMAP
F8
88
88
88
88
88
88
88
88
88
F8
ENDCHAR
STARTCHAR C0241
ENCODING 241
SWIDTH 375 0
DWIDTH 6 0
BBX 5 11 1 0
BITMAP
F8
88
88
88
88
88
88
88
88
88
F8
ENDCHAR
STARTCHAR C0242
ENCODING 242
SWIDTH 375 0
DWIDTH 6 0
BBX 5 11 1 0
BITMAP
F8
88
88
88
88
88
88
88
88
88
F8
ENDCHAR
STARTCHAR C0243
ENCODING 243
SWIDTH 375 0
DWIDTH 6 0
BBX 5 11 1 0
BITMAP
F8
88
88
88
88
88
88
88
88
88
F8
ENDCHAR
STARTCHAR C0244
ENCODING 244
SWIDTH 375 0
DWIDTH 6 0
BBX 5 11 1 0
BITMAP
F8
88
88
88
88
88
88
88
88
88
F8
ENDCHAR
STARTCHAR C0245
ENCODING 245
SWIDTH 375 0
DWIDTH 6 0
BBX 5 11 1 0
BITMAP
F8
88
88
88
88
88
88
88
88
88
F8
ENDCHAR
STARTCHAR C0246
ENCODING 246
SWIDTH 375 0
DWIDTH 6 0
BBX 5 11 1 0
BITMAP
F8
88
88
88
88
88
88
88
88
88
F8
ENDCHAR
STARTCHAR C0247
ENCODING 247
SWIDTH 375 0
DWIDTH 6 0
BBX 5 11 1 0
BITMAP
F8
88
88
88
88
88
88
88
88
88
F8
ENDCHAR
STARTCHAR C0248
ENCODING 248
SWIDTH 375 0
DWIDTH 6 0
BBX 5 11 1 0
BITMAP
F8
88
88
88
88
88
88
88
88
88
F8
ENDCHAR
STARTCHAR C0249
ENCODING 249
SWIDTH 375 0
DWIDTH 6 0
BBX 5 11 1 0
BITMAP
F8
88
88
88
88
88
88
88
88
88
F8
ENDCHAR
STARTCHAR C0250
ENCODING 250
SWIDTH 375 0
DWIDTH 6 0
BBX 5 11 1 0
BITMAP
F8
88
88
88
88
88
88
88
88
88
F8
ENDCHAR
STARTCHAR C0251
ENCODING 251
SWIDTH 375 0
DWIDTH 6 0
BBX 5 11 1 0
BITMAP
F8
88
88
88
88
88
88
88
88
88
F8
ENDCHAR
STARTCHAR C0252
ENCODING 252
SWIDTH 375 0
DWIDTH 6 0
BBX 5 11 1 0
BITMAP
F8
88
88
88
88
88
88
88
88
88
F8
ENDCHAR
STARTCHAR C0253
ENCODING 253
SWIDTH 375 0
DWIDTH 6 0
BBX 5 11 1 0
BITMAP
F8
88
88
88
88
88
88
88
88
88
F8
ENDCHAR
STARTCHAR C0254
ENCODING 254
SWIDTH 375 0
DWIDTH 6 0
BBX 5 11 1 0
BITMAP
F8
88
88
88
88
88
88
88
88
88
F8
ENDCHAR
STARTCHAR C0255
ENCODING 255
SWIDTH 375 0
DWIDTH 6 0
BBX 5 11 1 0
BITMAP
F8
88
88
88
88
88
88
88
88
88
F8
ENDCHAR
ENDFONT

